<?xml version="1.0" encoding="utf-8"?>
<!-- Generator: Adobe Illustrator 16.0.3, SVG Export Plug-In . SVG Version: 6.00 Build 0)  -->
<!DOCTYPE svg PUBLIC "-//W3C//DTD SVG 1.1//EN" "http://www.w3.org/Graphics/SVG/1.1/DTD/svg11.dtd">
<svg version="1.1" id="Layer_1" xmlns="http://www.w3.org/2000/svg" xmlns:xlink="http://www.w3.org/1999/xlink" x="0px" y="0px"
	 width="1414px" height="783.078px" viewBox="0 0 1414 783.078" enable-background="new 0 0 1414 783.078" xml:space="preserve">
<g id="Layer_1_1_" display="none">
</g>
<g id="Layer_2" display="none">
</g>
<g id="Your_Icon">
	<path fill="#010101" d="M489.97,513.967c0,0,0.086,0.644-0.382,1.437l-41.682,74.194c-0.621,1.079-0.176,1.393,0.644,2.036
		l26.289,19.104c0.591,0.329,1.781,1.571,2.713-0.285l32.179-77.877c0.307-0.554,0.827-0.27,0.827-0.27s146.6,74.942,240.745,0.584
		c83.911-66.268,120.514-293.109,205.038-340.54C961.446,189.344,485.692,82.686,489.97,513.967z M863.195,227.493
		C555.017,265.78,603.863,475.508,554.609,507.657c-0.254,0.156-0.329,0.156-0.805-0.023c-3.458-1.302-15.131-10.644-15.79-11.212
		c-0.584-0.503-0.98-0.659-0.812-1.572C588.511,192.073,879.917,222.441,863.195,227.493z"/>
</g>
</svg>
