<?xml version="1.0" encoding="utf-8"?>
<!-- Generator: Adobe Illustrator 16.0.3, SVG Export Plug-In . SVG Version: 6.00 Build 0)  -->
<!DOCTYPE svg PUBLIC "-//W3C//DTD SVG 1.1//EN" "http://www.w3.org/Graphics/SVG/1.1/DTD/svg11.dtd">
<svg version="1.1" id="Layer_1" xmlns="http://www.w3.org/2000/svg" xmlns:xlink="http://www.w3.org/1999/xlink" x="0px" y="0px"
	 width="1414px" height="783.078px" viewBox="0 0 1414 783.078" enable-background="new 0 0 1414 783.078" xml:space="preserve">
<g id="Layer_1_1_" display="none">
</g>
<g id="Layer_2" display="none">
</g>
<path fill="#231F20" d="M940.402,273.148h-29.376v-54.407c0-1.739,0-4.584,0-6.326v-3.032c0-1.741,0-4.59,0-6.326v-3.032
	c0-1.735-1.419-3.158-3.164-3.158h-411.73c-1.739,0-3.162,1.423-3.162,3.158v3.032c0,1.736,0,4.584,0,6.326v3.032
	c0,1.742,0,4.587,0,6.326v54.407h-29.378c-1.735,0-3.158,1.423-3.158,3.162v299.496c0,1.744,1.423,3.17,3.158,3.17h476.811
	c1.738,0,3.164-1.42,3.164-3.17V276.31C943.566,274.571,942.141,273.148,940.402,273.148z M509.234,223.219
	c0-1.744,1.422-3.167,3.161-3.167h379.212c1.745,0,3.164,1.423,3.164,3.167v49.929H509.234V223.219z M908.188,542.399
	c0,1.744-1.414,3.164-3.165,3.164H623.809c-1.739,0-3.162-1.413-3.162-3.164v-3.429c0-1.745,1.423-3.171,3.162-3.171h281.213
	c1.745,0,3.165,1.42,3.165,3.171V542.399z M908.188,511.051c0,1.738-1.414,3.164-3.165,3.164H623.809
	c-1.739,0-3.162-1.413-3.162-3.164v-3.436c0-1.744,1.423-3.17,3.162-3.17h281.213c1.745,0,3.165,1.426,3.165,3.17V511.051z
	 M908.188,479.702c0,1.745-1.414,3.164-3.165,3.164H623.809c-1.739,0-3.162-1.419-3.162-3.164v-3.441
	c0-1.744,1.423-3.164,3.162-3.164h281.213c1.745,0,3.165,1.42,3.165,3.164V479.702z M908.188,448.348c0,1.744-1.414,3.17-3.165,3.17
	H623.809c-1.739,0-3.162-1.426-3.162-3.17v-3.441c0-1.732,1.423-3.158,3.162-3.158h281.213c1.745,0,3.165,1.414,3.165,3.158V448.348
	z M908.188,417.005c0,1.738-1.414,3.171-3.165,3.171H623.809c-1.739,0-3.162-1.426-3.162-3.171v-3.441
	c0-1.738,1.423-3.164,3.162-3.164h281.213c1.745,0,3.165,1.42,3.165,3.164V417.005z M909.271,365.082
	c0,1.745-1.426,3.167-3.171,3.167H496.132c-1.739,0-3.162-1.417-3.162-3.167v-52.843c0-1.736,1.423-3.165,3.162-3.165h409.974
	c1.739,0,3.165,1.423,3.165,3.165V365.082L909.271,365.082z"/>
</svg>
