<?xml version="1.0" encoding="utf-8"?>
<!-- Generator: Adobe Illustrator 16.0.3, SVG Export Plug-In . SVG Version: 6.00 Build 0)  -->
<!DOCTYPE svg PUBLIC "-//W3C//DTD SVG 1.1//EN" "http://www.w3.org/Graphics/SVG/1.1/DTD/svg11.dtd">
<svg version="1.1" id="Layer_1" xmlns="http://www.w3.org/2000/svg" xmlns:xlink="http://www.w3.org/1999/xlink" x="0px" y="0px"
	 width="1414px" height="783.078px" viewBox="0 0 1414 783.078" enable-background="new 0 0 1414 783.078" xml:space="preserve">
<g id="Layer_1_1_" display="none">
</g>
<g id="Layer_2" display="none">
</g>
<g id="Your_Icon">
	<path fill="#010101" d="M486.78,515.757c0,0,0.087,0.653-0.387,1.458l-42.309,75.311c-0.63,1.095-0.179,1.413,0.653,2.066
		l26.684,19.391c0.6,0.334,1.808,1.596,2.754-0.289l32.663-79.049c0.312-0.562,0.84-0.273,0.84-0.273s148.805,76.07,244.367,0.593
		c85.173-67.265,122.326-297.519,208.122-345.663C965.35,186.25,482.438,77.988,486.78,515.757z M865.62,224.973
		c-312.814,38.863-263.234,251.746-313.228,284.378c-0.258,0.159-0.334,0.159-0.817-0.023c-3.51-1.321-15.359-10.804-16.027-11.381
		c-0.593-0.51-0.996-0.669-0.825-1.596C586.803,189.02,882.594,219.845,865.62,224.973z"/>
</g>
</svg>
