<?xml version="1.0" encoding="utf-8"?>
<!-- Generator: Adobe Illustrator 16.0.3, SVG Export Plug-In . SVG Version: 6.00 Build 0)  -->
<!DOCTYPE svg PUBLIC "-//W3C//DTD SVG 1.1//EN" "http://www.w3.org/Graphics/SVG/1.1/DTD/svg11.dtd">
<svg version="1.1" id="Layer_1" xmlns="http://www.w3.org/2000/svg" xmlns:xlink="http://www.w3.org/1999/xlink" x="0px" y="0px"
	 width="1414px" height="783.078px" viewBox="0 223.778 1414 783.078" enable-background="new 0 223.778 1414 783.078"
	 xml:space="preserve">
<g id="Layer_1_1_" display="none">
</g>
<g id="Layer_2" display="none">
</g>
<g id="Your_Icon">
	<path fill="#010101" d="M717.075,729.851c0,0.545-0.428,0.966-0.96,0.966h-75.261c-0.539,0-0.962-0.421-0.962-0.966v-7.702
		c0-0.533,0.424-0.979,0.962-0.979h75.261c0.532,0,0.96,0.445,0.96,0.979V729.851z"/>
	<path fill="#010101" d="M612.851,729.38c0,0.805-0.659,1.437-1.452,1.437h-83.461c-0.786,0-1.452-0.632-1.452-1.437V596.907
		c0-0.792,0.666-1.452,1.452-1.452h83.461c0.798,0,1.452,0.66,1.452,1.452V729.38z"/>
	<path fill="#010101" d="M820.337,562.209c0,0.792-0.663,1.437-1.455,1.437H527.938c-0.786,0-1.452-0.644-1.452-1.437v-33.304
		c0-0.787,0.666-1.434,1.452-1.434h290.956c0.78,0,1.449,0.647,1.449,1.434v33.304H820.337z"/>
	<rect x="639.886" y="595.26" fill="#010101" width="77.189" height="24.116"/>
	<path fill="#010101" d="M717.075,647.962c0,0.52-0.428,0.953-0.96,0.953h-75.261c-0.539,0-0.962-0.434-0.962-0.953v-7.721
		c0-0.539,0.424-0.984,0.962-0.984h75.261c0.532,0,0.96,0.445,0.96,0.984V647.962z"/>
	<path fill="#010101" d="M717.075,675.254c0,0.532-0.428,0.966-0.96,0.966h-75.261c-0.539,0-0.962-0.434-0.962-0.966v-7.715
		c0-0.532,0.424-0.979,0.962-0.979h75.261c0.532,0,0.96,0.446,0.96,0.979V675.254z"/>
	<path fill="#010101" d="M717.075,702.546c0,0.545-0.428,0.966-0.96,0.966h-75.261c-0.539,0-0.962-0.421-0.962-0.966v-7.702
		c0-0.532,0.424-0.979,0.962-0.979h75.261c0.532,0,0.96,0.446,0.96,0.979V702.546z"/>
	<rect x="743.135" y="595.26" fill="#010101" width="77.202" height="24.116"/>
	<path fill="#010101" d="M820.337,647.962c0,0.52-0.44,0.953-0.973,0.953h-75.251c-0.532,0-0.966-0.434-0.966-0.953v-7.721
		c0-0.539,0.434-0.984,0.966-0.984h75.251c0.532,0,0.973,0.445,0.973,0.984V647.962z"/>
	<path fill="#010101" d="M820.337,675.254c0,0.532-0.44,0.966-0.973,0.966h-75.251c-0.532,0-0.966-0.434-0.966-0.966v-7.715
		c0-0.532,0.434-0.979,0.966-0.979h75.251c0.532,0,0.973,0.446,0.973,0.979V675.254z"/>
	<path fill="#010101" d="M820.337,702.546c0,0.545-0.44,0.966-0.973,0.966h-75.251c-0.532,0-0.966-0.421-0.966-0.966v-7.702
		c0-0.532,0.434-0.979,0.966-0.979h75.251c0.532,0,0.973,0.446,0.973,0.979V702.546z"/>
	<path fill="#010101" d="M886.647,799.244h-425.99V464.756h425.99V799.244z M489.6,770.306h368.115V493.71H489.6V770.306z"/>
	<g>
		<path fill="#010101" d="M917.054,797.808c0,0.793-0.656,1.437-1.449,1.437h-9.163c-0.786,0-1.448-0.644-1.448-1.437V493.366
			c0-0.786,0.662-1.436,1.448-1.436h9.163c0.793,0,1.449,0.65,1.449,1.436V797.808z"/>
	</g>
	<g>
		<path fill="#010101" d="M943.343,797.808c0,0.793-0.656,1.437-1.449,1.437h-9.163c-0.792,0-1.455-0.644-1.455-1.437V518.46
			c0-0.805,0.663-1.458,1.455-1.458h9.163c0.793,0,1.449,0.653,1.449,1.458V797.808z"/>
	</g>
</g>
</svg>
