<?xml version="1.0" encoding="utf-8"?>
<!-- Generator: Adobe Illustrator 16.0.3, SVG Export Plug-In . SVG Version: 6.00 Build 0)  -->
<!DOCTYPE svg PUBLIC "-//W3C//DTD SVG 1.1//EN" "http://www.w3.org/Graphics/SVG/1.1/DTD/svg11.dtd">
<svg version="1.1" id="Layer_1" xmlns="http://www.w3.org/2000/svg" xmlns:xlink="http://www.w3.org/1999/xlink" x="0px" y="0px"
	 width="380px" height="529px" viewBox="0 0 380 529" enable-background="new 0 0 380 529" xml:space="preserve">
<g id="Layer_1_1_" display="none">
</g>
<g id="Layer_2" display="none">
</g>
<g id="circles_for_icons">
</g>
<g>
	<path d="M297.969,248.738c-1.045-6.946-2.785-13.825-5.161-20.458c-2.347-6.565-5.348-12.944-8.91-18.949
		c-3.564-6.013-7.715-11.697-12.347-16.91c-4.675-5.265-9.883-10.091-15.476-14.349c-5.691-4.332-11.848-8.111-18.285-11.24
		c-6.603-3.205-13.587-5.759-20.757-7.597c-7.178-1.83-14.526-2.943-21.861-3.294c-7.148-0.351-14.356,0.022-21.429,1.091
		c-6.946,1.045-13.833,2.778-20.466,5.153c-6.565,2.353-12.936,5.355-18.949,8.917c-6.005,3.556-11.697,7.716-16.91,12.347
		c-5.266,4.676-10.091,9.882-14.34,15.476c-4.332,5.692-8.119,11.846-11.241,18.278c-3.213,6.602-5.767,13.593-7.596,20.764
		c-2.525,9.874-3.661,20.002-3.384,30.099c0.082,2.951,0.284,5.896,0.605,8.824l4.145-0.583c-0.298-2.765-0.493-5.558-0.567-8.359
		c-0.262-9.522,0.784-19.248,3.257-28.942c14.356-56.167,71.532-90.062,127.7-75.707c56.166,14.356,90.062,71.524,75.705,127.699
		c-11.8,46.16-52.515,77.284-97.846,78.926l0.136,4.198c8.478-0.306,16.887-1.605,25.127-3.899
		c12.137-3.367,23.52-8.769,33.835-16.037c10.389-7.326,19.33-16.303,26.574-26.679c7.499-10.74,12.96-22.674,16.23-35.479
		c1.838-7.17,2.943-14.527,3.301-21.855C299.403,263.026,299.037,255.812,297.969,248.738z"/>
	<path d="M189.918,149.538c9.463,0,19.076,1.172,28.668,3.624c61.767,15.788,99.04,78.657,83.253,140.423
		c-13.334,52.177-60.271,86.877-111.756,86.877c-9.463,0-19.076-1.171-28.668-3.623c-61.766-15.788-99.041-78.659-83.252-140.424
		C91.497,184.239,138.433,149.54,189.918,149.538 M189.921,145.349v4.188V145.349c-13.169,0-26.178,2.176-38.67,6.466
		c-12.283,4.217-23.744,10.365-34.064,18.271c-10.423,7.986-19.393,17.545-26.66,28.415c-7.519,11.246-13.044,23.653-16.424,36.877
		c-2.009,7.861-3.224,15.921-3.614,23.956c-0.379,7.832,0.022,15.734,1.193,23.486c1.15,7.61,3.052,15.154,5.655,22.42
		c2.577,7.196,5.863,14.184,9.766,20.767c3.903,6.585,8.457,12.818,13.533,18.533c5.127,5.769,10.832,11.058,16.958,15.719
		c6.239,4.747,12.979,8.892,20.033,12.316c7.236,3.513,14.89,6.313,22.751,8.325c9.745,2.489,19.739,3.751,29.705,3.751
		c13.167,0,26.174-2.175,38.668-6.463c12.284-4.219,23.743-10.367,34.062-18.271c10.423-7.987,19.394-17.547,26.659-28.417
		c7.518-11.245,13.046-23.652,16.425-36.878c2.009-7.859,3.225-15.92,3.614-23.953c0.379-7.833-0.021-15.735-1.192-23.488
		c-1.149-7.611-3.053-15.154-5.655-22.42c-2.577-7.195-5.862-14.182-9.766-20.767c-3.904-6.583-8.457-12.819-13.534-18.532
		c-5.125-5.77-10.831-11.059-16.955-15.719c-6.24-4.747-12.981-8.892-20.035-12.317c-7.236-3.514-14.891-6.314-22.751-8.324
		C209.878,146.612,199.885,145.349,189.921,145.349L189.921,145.349z"/>
	<g>
		<path d="M166.126,290.622c0.297-0.226,0.484-0.402,0.701-0.53c2.016-1.188,3.791-2.667,5.371-4.387
			c1.85-2.014,3.326-4.274,4.538-6.722c0.806-1.627,1.44-3.318,2.038-5.028c0.555-1.587,0.771-3.217,0.917-4.877
			c0.065-0.74,0.103-1.479,0.139-2.218c0.063-1.301-0.144-2.577-0.303-3.857c-0.029-0.229-0.121-0.472-0.25-0.663
			c-0.196-0.286-0.439-0.253-0.605,0.051c-0.115,0.211-0.23,0.426-0.305,0.654c-0.322,0.974-0.619,1.957-0.944,2.929
			c-0.346,1.035-0.726,2.057-1.066,3.095c-0.342,1.035-0.653,2.082-0.979,3.124c-0.157,0.499-0.311,0.999-0.48,1.494
			c-0.488,1.423-0.994,2.841-1.471,4.268c-0.339,1.015-0.564,2.072-0.979,3.054c-0.849,2.01-2.144,2.805-4.295,2.52
			c-1.727-0.229-2.942-1.611-3.028-3.429c-0.049-1.02,0.263-1.942,0.554-2.878c0.356-1.146,0.751-2.279,1.135-3.416
			c0.329-0.97,0.666-1.94,0.996-2.91c0.353-1.035,0.699-2.068,1.049-3.103c0.336-0.994,0.675-1.987,1.01-2.981
			c0.348-1.035,0.692-2.073,1.039-3.11c0.346-1.036,0.705-2.069,1.033-3.111c0.125-0.393,0.195-0.805,0.255-1.213
			c0.042-0.279-0.061-0.524-0.342-0.647c-0.376-0.166-0.748-0.356-1.139-0.476c-0.3-0.092-0.559,0.042-0.687,0.357
			c-0.221,0.545-0.472,1.081-0.659,1.636c-0.349,1.035-0.652,2.085-0.995,3.122c-0.334,1.015-0.698,2.022-1.041,3.035
			c-0.329,0.973-0.648,1.948-0.97,2.925c-0.334,1.017-0.667,2.036-1,3.053c-0.346,1.058-0.687,2.117-1.04,3.174
			c-0.364,1.099-0.737,2.192-1.106,3.288c-0.16,0.475-0.324,0.95-0.482,1.427c-0.402,1.196-0.81,2.396-1.202,3.598
			c-0.332,1.017-0.637,2.041-0.971,3.058c-0.197,0.6-0.437,1.187-0.639,1.788c-0.188,0.556-0.347,1.123-0.528,1.682
			c-0.227,0.704-0.457,1.409-0.697,2.11c-0.169,0.494-0.341,0.988-0.538,1.473c-0.361,0.885-0.98,1.558-1.822,1.994
			c-0.321,0.166-0.705,0.245-1.07,0.289c-1.554,0.186-3.12-0.437-3.87-1.894c-0.184-0.357-0.276-0.788-0.311-1.191
			c-0.083-1.008,0-1.992,0.373-2.966c0.521-1.363,0.923-2.771,1.388-4.155c0.341-1.013,0.713-2.016,1.053-3.029
			c0.339-1.015,0.656-2.037,0.983-3.054c0.167-0.519,0.331-1.04,0.511-1.555c0.199-0.576,0.427-1.144,0.623-1.723
			c0.545-1.611,1.087-3.225,1.618-4.842c0.469-1.432,0.908-2.872,1.385-4.301c0.324-0.974,0.7-1.928,1.034-2.898
			c0.335-0.972,0.645-1.95,0.969-2.925c0.359-1.078,0.717-2.156,1.08-3.232c0.294-0.87,0.598-1.736,0.889-2.605
			c0.084-0.251,0.032-0.506-0.182-0.653c-0.41-0.284-0.839-0.544-1.276-0.783c-0.24-0.132-0.429,0.012-0.523,0.239
			c-0.276,0.664-0.552,1.329-0.801,2.003c-0.235,0.635-0.438,1.279-0.65,1.922c-0.191,0.58-0.372,1.166-0.563,1.746
			c-0.374,1.139-0.754,2.275-1.126,3.416c-0.338,1.036-0.664,2.078-1.005,3.113c-0.192,0.58-0.404,1.152-0.605,1.729
			c-0.172,0.492-0.349,0.986-0.516,1.483c-0.408,1.22-0.821,2.438-1.213,3.661c-0.34,1.061-0.638,2.133-0.982,3.191
			c-0.324,0.998-0.69,1.978-1.024,2.972c-0.341,1.014-0.664,2.035-0.997,3.051c-0.321,0.977-0.645,1.949-0.971,2.923
			c-0.208,0.62-0.423,1.239-0.636,1.859c-0.274,0.798-0.663,1.527-1.318,2.078c-0.82,0.69-1.791,0.918-2.827,0.766
			c-0.95-0.14-1.797-0.527-2.44-1.292c-0.406-0.482-0.665-1.04-0.747-1.646c-0.116-0.873-0.06-1.731,0.24-2.59
			c0.648-1.855,1.226-3.735,1.84-5.604c0.542-1.64,1.086-3.275,1.644-4.907c0.495-1.446,1.024-2.881,1.51-4.329
			c0.48-1.43,0.912-2.872,1.388-4.301c0.477-1.429,0.993-2.845,1.473-4.272c0.34-1.014,0.637-2.042,0.973-3.058
			c0.337-1.015,0.707-2.02,1.05-3.033c0.322-0.951,0.631-1.907,0.94-2.863c0.182-0.559,0.346-1.125,0.531-1.681
			c0.142-0.428,0.031-0.778-0.293-1.066c-0.326-0.292-0.665-0.568-0.991-0.859c-0.259-0.231-0.515-0.178-0.67,0.076
			c-0.238,0.387-0.457,0.799-0.605,1.226c-0.416,1.195-0.795,2.403-1.184,3.607c-0.327,1.018-0.636,2.041-0.975,3.056
			c-0.337,1.012-0.718,2.012-1.047,3.028c-0.207,0.639-0.356,1.297-0.531,1.947c-0.022,0.084-0.022,0.179-0.064,0.252
			c-0.608,1.073-0.847,2.28-1.241,3.43c-0.509,1.486-1.006,2.976-1.498,4.469c-0.335,1.015-0.64,2.04-0.98,3.055
			c-0.391,1.158-0.721,2.349-1.23,3.454c-0.623,1.354-1.659,2.195-3.281,2.195c-1.41-0.001-2.521-0.503-3.297-1.661
			c-0.489-0.732-0.617-1.597-0.555-2.451c0.042-0.584,0.23-1.158,0.406-1.72c0.346-1.105,0.727-2.199,1.093-3.296
			c0.326-0.975,0.653-1.947,0.977-2.922c0.359-1.078,0.713-2.157,1.075-3.233c0.349-1.036,0.71-2.066,1.058-3.102
			c0.322-0.953,0.63-1.909,0.952-2.861c0.231-0.683,0.476-1.36,0.712-2.041c0.171-0.495,0.339-0.992,0.506-1.489
			c0.396-1.179,0.798-2.357,1.184-3.54c0.467-1.432,0.913-2.872,1.386-4.303c0.327-0.995,0.684-1.981,1.027-2.971
			c0.029-0.083,0.073-0.163,0.086-0.248c0.294-1.823,1.023-3.516,1.59-5.256c0.466-1.433,0.901-2.878,1.395-4.302
			c0.313-0.903,0.601-1.821,1.12-2.647c0.454-0.722,1.018-1.336,1.743-1.75c0.906-0.517,1.939-0.664,2.971-0.703
			c1.291-0.047,2.583-0.032,3.875-0.056c1.421-0.027,2.844-0.102,4.265-0.093c1.357,0.007,2.72,0.031,4.068,0.164
			c1.169,0.116,2.343,0.311,3.437,0.793c1.166,0.512,1.975,1.35,2.297,2.609c0.017,0.063,0.023,0.131,0.048,0.19
			c0.604,1.424,0.045,2.593-0.807,3.703c-0.917,1.195-2.133,2.066-3.255,3.041c-0.841,0.731-1.702,1.448-2.324,2.395
			c-0.543,0.825-0.42,1.506,0.454,1.967c0.671,0.354,1.397,0.61,2.111,0.88c1.091,0.412,2.241,0.56,3.389,0.724
			c0.815,0.117,1.62,0.058,2.419-0.081c0.883-0.152,1.788-0.28,2.587-0.698c0.494-0.258,0.972-0.608,1.347-1.018
			c0.835-0.912,1.378-2.019,1.83-3.163c0.521-1.319,1.04-2.639,1.509-3.976c0.245-0.697,0.438-1.423,0.553-2.15
			c0.135-0.863-0.127-1.194-0.962-1.447c-0.187-0.057-0.386-0.106-0.579-0.107c-0.846-0.001-1.645-0.239-2.439-0.483
			c-0.768-0.236-1.305-0.794-1.748-1.428c-0.273-0.389-0.467-0.839-0.666-1.275c-0.13-0.285-0.026-0.466,0.291-0.516
			c0.39-0.061,0.784-0.083,1.176-0.118c1.242-0.109,2.483-0.229,3.725-0.32c0.476-0.035,0.853-0.268,1.143-0.584
			c0.657-0.717,1.066-1.559,0.876-2.566c-0.131-0.695-0.582-1.152-1.242-1.409c-0.938-0.364-1.923-0.41-2.91-0.418
			c-1.797-0.016-3.59,0.021-5.365,0.351c-0.236,0.044-0.478,0.067-0.718,0.078c-0.624,0.026-0.768-0.088-0.721-0.698
			c0.054-0.696,0.172-1.388,0.266-2.081c0.131-0.958,0.537-1.794,1.154-2.53c0.555-0.661,1.292-1.02,2.102-1.264
			c1.214-0.366,2.451-0.428,3.707-0.354c0.214,0.012,0.444-0.007,0.648-0.074c0.954-0.309,1.893-0.665,2.852-0.952
			c0.835-0.251,1.685-0.464,2.54-0.638c0.833-0.171,1.678-0.333,2.524-0.386c1.174-0.071,2.353-0.185,3.533-0.034
			c2.043,0.261,3.992,1.474,4.741,3.629c0.181,0.522,0.192,0.539,0.74,0.535c0.415-0.004,0.831-0.026,1.247-0.004
			c1.508,0.079,2.67,0.756,3.212,2.188c0.297,0.786,0.373,1.659,0.507,2.499c0.058,0.364,0.028,0.746,0,1.116
			c-0.026,0.322-0.174,0.409-0.493,0.344c-0.128-0.026-0.256-0.066-0.374-0.125c-1.28-0.629-2.617-0.614-3.971-0.325
			c-0.537,0.115-0.734,0.474-0.655,1.015c0.217,1.495,0.405,2.993,0.642,4.484c0.184,1.144,0.42,2.279,0.636,3.42
			c0.191,1.01,0.36,2.025,0.589,3.026c0.173,0.764,0.421,1.513,0.641,2.268c0.221,0.756,0.513,1.481,0.909,2.169
			c0.481,0.838,1.135,1.492,1.938,2.015c1.52,0.995,3.23,1.414,5.003,1.618c0.336,0.039,0.688-0.097,1.036-0.134
			c1.436-0.151,2.769-0.601,3.967-1.415c0.761-0.519,1.089-1.276,0.821-1.961c-0.14-0.361-0.334-0.722-0.581-1.021
			c-0.553-0.675-1.122-1.344-1.742-1.958c-0.943-0.935-1.745-1.972-2.356-3.14c-0.291-0.553-0.439-1.182-0.63-1.784
			c-0.08-0.249-0.082-0.52-0.152-0.771c-0.222-0.791,0.025-1.537,0.295-2.241c0.207-0.54,0.723-0.871,1.293-1.036
			c1.056-0.307,2.134-0.443,3.241-0.448c2.319-0.009,4.641-0.098,6.961-0.087c2.561,0.012,5.124,0.038,7.682,0.17
			c1.81,0.094,3.094,0.927,3.752,2.852c0.331,0.969,0.701,1.926,1.042,2.893c0.18,0.515,0.334,1.037,0.496,1.557
			c0.599,1.918,1.194,3.837,1.791,5.756c0.534,1.709,1.062,3.42,1.609,5.125c0.472,1.476,0.979,2.942,1.448,4.418
			c0.344,1.081,0.646,2.176,0.984,3.26c0.311,1.001,0.649,1.995,0.967,2.994c0.362,1.144,0.716,2.293,1.076,3.438
			c0.149,0.479,0.3,0.957,0.455,1.434c0.483,1.473,0.981,2.941,1.452,4.418c0.34,1.059,0.643,2.133,0.97,3.196
			c0.199,0.646,0.428,1.284,0.629,1.931c0.241,0.771,0.468,1.541,0.45,2.371c-0.045,1.845-1.171,3.348-3.01,3.682
			c-0.75,0.137-1.445,0.108-2.125-0.129c-0.741-0.26-1.325-0.8-1.706-1.476c-0.338-0.6-0.558-1.272-0.795-1.925
			c-0.187-0.514-0.31-1.046-0.479-1.564c-0.329-1.018-0.677-2.032-1.006-3.048c-0.206-0.646-0.392-1.296-0.587-1.943
			c-0.165-0.544-0.318-1.092-0.493-1.632c-0.352-1.079-0.729-2.15-1.067-3.234c-0.466-1.502-0.893-3.016-1.359-4.518
			c-0.46-1.479-0.957-2.947-1.425-4.424c-0.212-0.666-0.373-1.347-0.597-2.008c-0.24-0.7-0.492-1.398-0.803-2.069
			c-0.222-0.477-0.438-0.497-0.892-0.212c-0.224,0.14-0.416,0.336-0.65,0.442c-0.509,0.233-0.639,0.636-0.57,1.133
			c0.051,0.367,0.117,0.736,0.229,1.088c0.44,1.395,0.904,2.782,1.353,4.173c0.417,1.288,0.832,2.574,1.232,3.865
			c0.33,1.062,0.627,2.135,0.961,3.196c0.32,1.022,0.67,2.032,1.004,3.049c0.191,0.579,0.378,1.16,0.559,1.744
			c0.348,1.124,0.687,2.254,1.037,3.378c0.356,1.148,0.716,2.295,1.086,3.437c0.5,1.536,1.022,3.064,1.512,4.601
			c0.332,1.039,0.629,2.089,0.941,3.136c0.181,0.605,0.391,1.206,0.54,1.819c0.271,1.105,0.117,2.171-0.421,3.173
			c-0.546,1.015-1.492,1.481-2.542,1.685c-2.01,0.39-3.562-0.651-4.205-2.497c-0.445-1.276-0.815-2.579-1.229-3.866
			c-0.353-1.099-0.731-2.191-1.077-3.293c-0.333-1.062-0.629-2.137-0.959-3.2c-0.331-1.062-0.688-2.118-1.03-3.18
			c-0.188-0.58-0.366-1.165-0.549-1.75c-0.365-1.164-0.733-2.329-1.095-3.496c-0.201-0.647-0.381-1.3-0.584-1.946
			c-0.216-0.687-0.451-1.367-0.67-2.052c-0.288-0.896-0.567-1.793-0.854-2.689c-0.283-0.893-0.575-1.785-0.854-2.68
			c-0.291-0.939-0.554-1.888-0.869-2.818c-0.115-0.343-0.313-0.675-0.54-0.96c-0.11-0.139-0.398-0.253-0.562-0.21
			c-0.495,0.128-0.949,0.374-1.14,0.898c-0.07,0.196-0.118,0.441-0.064,0.633c0.231,0.842,0.502,1.675,0.764,2.509
			c0.359,1.146,0.722,2.29,1.085,3.434c0.33,1.041,0.662,2.08,0.991,3.121c0.351,1.103,0.695,2.208,1.05,3.309
			c0.22,0.686,0.453,1.365,0.674,2.051c0.191,0.603,0.373,1.209,0.561,1.814c0.168,0.542,0.328,1.085,0.506,1.626
			c0.475,1.451,0.965,2.899,1.429,4.354c0.348,1.08,0.646,2.175,0.986,3.257c0.329,1.041,0.69,2.07,1.024,3.107
			c0.323,0.998,0.632,2,0.942,3.003c0.224,0.729,0.461,1.454,0.65,2.194c0.268,1.054,0.351,2.111-0.137,3.14
			c-0.428,0.903-1.178,1.382-2.115,1.608c-0.275,0.068-0.556,0.124-0.834,0.177c-1.144,0.23-2.15-0.074-2.906-0.943
			c-0.357-0.415-0.587-0.969-0.778-1.494c-0.403-1.105-0.752-2.231-1.105-3.354c-0.326-1.04-0.623-2.093-0.945-3.135
			c-0.32-1.043-0.659-2.081-0.984-3.123c-0.223-0.71-0.435-1.42-0.655-2.128c-0.187-0.606-0.373-1.209-0.565-1.81
			c-0.334-1.042-0.672-2.079-1.007-3.12c-0.262-0.809-0.523-1.617-0.777-2.428c-0.29-0.917-0.566-1.838-0.854-2.756
			c-0.256-0.811-0.524-1.617-0.775-2.429c-0.306-0.98-0.594-1.966-0.898-2.948c-0.226-0.729-0.471-1.452-0.699-2.181
			c-0.338-1.084-0.652-2.175-1.007-3.252c-0.142-0.432-0.328-0.859-0.562-1.249c-0.256-0.425-0.553-0.503-1.015-0.328
			c-0.325,0.124-0.65,0.273-0.938,0.467c-0.448,0.303-0.586,0.764-0.448,1.275c0.196,0.739,0.422,1.472,0.65,2.202
			c0.213,0.687,0.452,1.365,0.669,2.051c0.334,1.062,0.658,2.128,0.986,3.192c0.236,0.771,0.473,1.543,0.712,2.312
			c0.132,0.418,0.277,0.826,0.414,1.242c0.489,1.493,0.985,2.985,1.464,4.481c0.425,1.33,0.893,2.654,1.225,4.008
			c0.387,1.572-0.152,3.574-1.791,4.415c-2.441,1.254-4.785,0.042-5.5-2.285c-0.332-1.084-0.712-2.156-1.058-3.237
			c-0.317-0.999-0.611-2.006-0.926-3.004c-0.229-0.729-0.478-1.451-0.709-2.179c-0.178-0.562-0.341-1.129-0.519-1.69
			c-0.383-1.207-0.783-2.406-1.149-3.616c-0.35-1.148-0.656-2.307-0.991-3.458c-0.104-0.357-0.221-0.711-0.358-1.056
			c-0.119-0.299-0.366-0.328-0.53-0.045c-0.141,0.241-0.246,0.521-0.28,0.794c-0.193,1.547-0.221,3.1-0.11,4.654
			c0.026,0.371,0.034,0.744,0.053,1.115c0.078,1.515,0.362,2.99,0.748,4.456c0.613,2.338,1.51,4.558,2.641,6.684
			c0.802,1.511,1.804,2.892,2.933,4.184c2.067,2.372,4.529,4.24,7.254,5.781c0.106,0.061,0.187,0.158,0.343,0.294
			c-0.5,0.321-1.025,0.388-1.498,0.579c-0.583,0.236-1.168,0.483-1.712,0.795c-0.446,0.256-0.521,0.66-0.306,1.136
			c0.602,1.333,1.174,2.684,2.032,3.882c0.115,0.159,0.228,0.322,0.355,0.472c0.489,0.565,1.096,0.769,1.829,0.582
			c1.07-0.272,2.065-0.706,2.95-1.381c0.295-0.226,0.604-0.432,0.913-0.638c0.619-0.412,1.312-0.456,2.02-0.369
			c0.813,0.1,1.392,0.568,1.653,1.32c0.177,0.511,0.447,0.677,0.956,0.681c0.481,0.005,0.929,0.156,1.339,0.462
			c0.534,0.399,0.743,0.963,0.908,1.554c0.09,0.32-0.116,0.511-0.447,0.443c-0.168-0.033-0.321-0.131-0.482-0.196
			c-0.741-0.3-1.38,0.125-1.375,0.916c0.007,1.028-0.384,1.396-1.424,1.441c-0.611,0.024-1.115-0.177-1.581-0.529
			c-0.191-0.146-0.384-0.295-0.558-0.459c-0.478-0.448-1.021-0.457-1.594-0.257c-0.65,0.23-0.868,0.906-0.413,1.421
			c0.856,0.968,1.892,1.633,3.241,1.61c0.619-0.012,1.216,0.052,1.811,0.232c1.029,0.312,1.668,1.154,1.384,2.179
			c-0.115,0.417-0.06,0.817,0.104,1.219c0.358,0.867,0.126,1.681-0.295,2.454c-0.1,0.185-0.273,0.347-0.445,0.473
			c-0.215,0.154-0.419,0.093-0.545-0.148c-0.04-0.076-0.054-0.167-0.088-0.246c-0.287-0.699-0.812-0.865-1.475-0.493
			c-0.281,0.156-0.575,0.33-0.883,0.393c-1.018,0.202-1.705-0.113-2.157-1.057c-0.338-0.705-0.566-1.46-0.841-2.196
			c-0.335-0.894-0.541-1.849-1.186-2.604c-0.433-0.508-0.929-0.631-1.453-0.361c-0.436,0.227-0.622,0.796-0.483,1.38
			c0.232,0.977,0.77,1.806,1.271,2.648c0.34,0.568,0.62,1.149,0.758,1.804c0.135,0.646-0.063,1.317-0.666,1.544
			c-0.718,0.273-1.146,0.745-1.537,1.374c-0.6,0.962-1.57,1.275-2.67,1.212c-0.103-0.006-0.2-0.063-0.392-0.126
			c0.112-0.262,0.21-0.488,0.309-0.713c0.122-0.279,0.283-0.547,0.358-0.838c0.094-0.366-0.058-0.522-0.445-0.543
			c-0.087-0.004-0.175,0.016-0.264,0.017c-1.2,0.025-1.971-1.032-1.501-2.127c0.316-0.739,0.708-1.451,1.104-2.155
			c0.393-0.693,0.653-1.431,0.844-2.197c0.166-0.667-0.176-1.05-0.874-1.021c-0.541,0.022-0.927,0.239-1.07,0.791
			c-0.077,0.296-0.153,0.593-0.214,0.892c-0.049,0.233-0.058,0.481-0.114,0.711c-0.27,1.088-1.501,1.497-2.371,0.793
			c-0.085-0.069-0.163-0.146-0.249-0.215c-0.263-0.214-0.543-0.229-0.748,0.047c-0.285,0.381-0.549,0.78-0.774,1.199
			c-0.201,0.373-0.212,0.84-0.542,1.208c-0.123-0.09-0.263-0.14-0.317-0.235c-0.278-0.493-0.595-0.977-0.788-1.502
			c-0.392-1.076-0.113-2.034,0.72-2.803c0.349-0.323,0.544-0.59,0.217-1.05c-0.129-0.182-0.129-0.461-0.159-0.698
			c-0.083-0.637,0.172-1.098,0.723-1.422c0.548-0.328,1.146-0.387,1.761-0.447c0.473-0.047,0.949-0.15,1.395-0.314
			c0.692-0.253,0.906-0.701,0.852-1.438c-0.057-0.718-0.333-1.364-0.639-1.988c-0.334-0.686-0.753-1.333-1.162-1.979
			c-0.358-0.562-0.845-0.635-1.303-0.15c-0.417,0.441-0.756,0.956-1.112,1.448c-0.112,0.16-0.178,0.416-0.411,0.329
			c-0.15-0.056-0.307-0.254-0.351-0.417c-0.467-1.73-1.312-3.286-2.293-4.759c-0.993-1.493-2.06-2.939-3.149-4.364
			c-0.679-0.888-1.492-1.661-2.54-2.133c-0.762-0.344-1.282-0.09-1.614,0.669c-0.428,0.979-0.369,2.015-0.464,3.033
			c-0.059,0.629-0.047,1.27-0.017,1.903c0.062,1.355,0.136,2.712,0.247,4.063c0.077,0.892,0.195,1.786,0.359,2.666
			c0.144,0.75,0.37,1.482,0.579,2.219c0.178,0.631,0.369,1.26,0.578,1.88c0.341,1.015,0.68,2.03,1.058,3.031
			c0.645,1.717,1.322,3.422,1.979,5.134c0.045,0.116,0.047,0.247,0.084,0.457c-0.208,0-0.381,0.037-0.527-0.007
			c-1.572-0.455-3.142-0.924-4.71-1.389c-0.638-0.189-0.767-0.101-0.89,0.541c-0.226,1.179-0.407,2.372-0.716,3.532
			c-0.481,1.819-1.116,3.589-2.322,5.089c-0.369,0.46-0.536,0.468-0.904,0.015c-0.591-0.725-0.927-1.581-1.221-2.45
			c-0.435-1.284-0.785-2.593-0.926-3.95c-0.081-0.783-0.219-1.558-0.312-2.336c-0.063-0.526-0.171-0.638-0.667-0.499
			c-1.072,0.305-2.138,0.633-3.205,0.953c-0.563,0.173-1.122,0.361-1.688,0.523c-0.331,0.095-0.504-0.098-0.385-0.441
			c0.266-0.762,0.56-1.516,0.839-2.272c0.167-0.451,0.338-0.898,0.49-1.354c0.545-1.64,1.105-3.272,1.616-4.921
			c0.335-1.083,0.675-2.177,0.867-3.292c0.236-1.374,0.394-2.775,0.454-4.17c0.077-1.748,0.064-3.504,0.001-5.254
			c-0.033-0.933-0.227-1.864-0.405-2.786c-0.118-0.612-0.634-0.823-1.195-0.592c-0.597,0.247-1.092,0.623-1.555,1.07
			c-1.338,1.289-2.341,2.83-3.35,4.367c-0.743,1.134-1.415,2.314-1.93,3.572c-0.446,1.093-0.863,2.195-1.041,3.374
			c-0.051,0.347-0.135,0.688-0.234,1.024c-0.044,0.148-0.164,0.276-0.302,0.502c-0.152-0.232-0.247-0.368-0.334-0.51
			c-0.402-0.648-0.793-1.307-1.207-1.948c-0.13-0.201-0.299-0.382-0.478-0.541c-0.498-0.45-0.738-0.417-1.181,0.11
			c-0.789,0.94-1.57,1.883-2.163,2.964c-0.683,1.239-0.204,1.889,1.046,2.191c0.422,0.102,0.87,0.095,1.303,0.162
			c0.389,0.061,0.777,0.133,1.156,0.232c0.847,0.23,1.343,0.855,1.159,1.703c-0.18,0.829,0.003,1.488,0.333,2.239
			c0.391,0.891,0.161,1.822-0.505,2.562c-0.325,0.361-0.604,0.815-1.121,0.955c-0.301-0.177-0.249-0.436-0.138-0.642
			c0.275-0.514,0.117-0.972-0.105-1.439c-0.214-0.448-0.435-0.523-0.885-0.308c-0.393,0.187-0.792,0.364-1.195,0.532
			c-0.402,0.168-0.812,0.146-1.223,0.021c-0.488-0.149-0.869-0.39-0.971-0.947c-0.062-0.343-0.193-0.672-0.287-1.011
			c-0.067-0.25-0.194-0.503-0.453-0.495c-0.234,0.008-0.524,0.111-0.687,0.274c-0.272,0.273-0.333,0.644-0.226,1.038
			c0.23,0.841,0.717,1.542,1.173,2.263c0.28,0.445,0.545,0.879,0.554,1.448c0.011,0.648-0.257,1.084-0.8,1.386
			c-0.848,0.479-0.856,0.482-0.5,1.348c0.114,0.278,0.277,0.539,0.42,0.807c0.184,0.345,0.08,0.563-0.303,0.581
			c-0.872,0.04-2.494-0.627-2.868-1.745c-0.141-0.415-0.359-0.69-0.8-0.77c-0.042-0.006-0.082-0.03-0.123-0.046
			c-1.143-0.492-1.443-1.26-0.868-2.378c0.489-0.95,1.072-1.853,1.553-2.807c0.313-0.622,0.527-1.294,0.525-2.009
			c0-0.425-0.122-0.795-0.548-0.961c-0.407-0.155-0.765-0.033-1.081,0.268c-0.758,0.719-1.356,1.534-1.63,2.566
			c-0.23,0.865-0.489,1.721-0.75,2.577c-0.304,0.992-1.033,1.45-2.054,1.317c-0.417-0.055-0.801-0.159-1.168-0.391
			c-0.565-0.358-0.708-0.312-1.018,0.269c-0.14,0.263-0.197,0.569-0.308,0.851c-0.061,0.153-0.14,0.403-0.235,0.415
			c-0.163,0.02-0.392-0.065-0.513-0.187c-0.604-0.614-0.856-1.389-0.756-2.225c0.064-0.527-0.023-0.997-0.189-1.475
			c-0.323-0.922,0.045-1.762,0.906-2.251c0.78-0.443,1.666-0.509,2.487-0.796c1.079-0.377,2.094-0.876,2.973-1.615
			c0.244-0.206,0.464-0.478,0.609-0.764c0.272-0.534-0.011-0.951-0.61-0.988c-0.677-0.045-1.203,0.353-1.79,0.577
			c-0.466,0.179-0.938,0.366-1.424,0.46c-0.7,0.135-1.297-0.339-1.413-1.049c-0.049-0.302-0.057-0.612-0.121-0.912
			c-0.078-0.354-0.217-0.453-0.563-0.361c-0.265,0.073-0.517,0.215-0.755,0.361c-0.237,0.144-0.434,0.374-0.787,0.28
			c-0.155-0.444,0.046-0.843,0.259-1.169c0.467-0.711,1.126-1.199,1.96-1.456c0.322-0.1,0.624-0.292,0.908-0.48
			c0.197-0.132,0.342-0.339,0.524-0.496c0.748-0.649,1.583-0.815,2.494-0.391c0.554,0.259,1.1,0.533,1.63,0.838
			c0.702,0.402,1.398,0.806,2.208,0.96c0.724,0.141,1.364-0.01,1.851-0.575c0.614-0.712,1.214-1.436,1.779-2.186
			c0.313-0.417,0.555-0.888,0.806-1.349c0.413-0.755,0.323-1.139-0.43-1.578c-0.544-0.319-1.133-0.562-1.7-0.842
			C166.468,290.838,166.364,290.765,166.126,290.622z M187.12,218.852c0.566-0.001,1.618-0.669,1.775-1.108
			c0.045-0.122,0.031-0.33-0.046-0.419c-1.025-1.174-2.203-1.354-3.298-0.03c-0.14,0.17-0.172,0.354-0.033,0.537
			C185.941,218.397,186.513,218.726,187.12,218.852z"/>
		<path d="M182.678,224.575c-0.136,0.035-0.274,0.108-0.407,0.098c-0.457-0.037-0.911-0.126-1.369-0.15
			c-0.914-0.046-1.838-0.146-2.743-0.068c-1.062,0.091-2.106,0.375-3.166,0.527c-1.562,0.224-3.14,0.436-4.7,0.093
			c-1.545-0.339-2.695-1.193-3.153-2.808c-0.211-0.745-0.402-1.483-0.239-2.258c0.037-0.179,0.108-0.427,0.236-0.49
			c0.253-0.122,0.365,0.144,0.484,0.324c0.51,0.768,1.073,1.484,1.787,2.085c0.878,0.74,1.9,1.086,3.013,1.126
			c1.641,0.059,3.285,0.068,4.928,0.057c1.555-0.011,3.037,0.33,4.489,0.835c0.312,0.109,0.583,0.328,0.874,0.495
			C182.701,224.485,182.689,224.529,182.678,224.575z"/>
	</g>
	<path d="M190,170.339c52.28,0,94.661,42.382,94.661,94.661c0,52.281-42.381,94.663-94.661,94.663
		c-52.279,0-94.661-42.382-94.661-94.663C95.339,212.721,137.721,170.339,190,170.339 M190,166.15
		c-6.704,0-13.405,0.675-19.917,2.008c-6.349,1.299-12.594,3.237-18.562,5.762c-5.858,2.477-11.507,5.544-16.792,9.115
		c-5.234,3.535-10.155,7.596-14.626,12.067c-4.473,4.474-8.533,9.394-12.068,14.627c-3.57,5.285-6.637,10.935-9.114,16.792
		c-2.523,5.967-4.463,12.212-5.762,18.561c-1.333,6.512-2.008,13.212-2.008,19.917c0,6.704,0.675,13.406,2.008,19.919
		c1.299,6.348,3.237,12.591,5.762,18.561c2.477,5.858,5.544,11.508,9.114,16.792c3.536,5.233,7.596,10.155,12.068,14.627
		c4.472,4.472,9.393,8.531,14.626,12.068c5.285,3.569,10.935,6.637,16.792,9.113c5.968,2.523,12.213,4.464,18.562,5.763
		c6.512,1.331,13.212,2.008,19.917,2.008c6.705,0,13.406-0.677,19.918-2.008c6.348-1.299,12.591-3.239,18.562-5.763
		c5.857-2.477,11.506-5.544,16.791-9.113c5.233-3.537,10.155-7.597,14.628-12.068c4.471-4.472,8.532-9.394,12.066-14.627
		c3.571-5.284,6.638-10.934,9.115-16.792c2.523-5.968,4.462-12.213,5.761-18.561c1.334-6.513,2.008-13.215,2.008-19.919
		c0-6.705-0.674-13.405-2.008-19.917c-1.299-6.349-3.237-12.594-5.761-18.561c-2.478-5.858-5.544-11.508-9.115-16.792
		c-3.534-5.233-7.596-10.154-12.066-14.626c-4.473-4.472-9.395-8.532-14.628-12.068c-5.285-3.57-10.935-6.637-16.791-9.114
		c-5.97-2.524-12.214-4.463-18.562-5.762C203.405,166.826,196.704,166.15,190,166.15L190,166.15z"/>
	<g>
		<path d="M88.01,284.487c0.098-0.021,0.203,0.036,0.225,0.146l0.488,2.275c0.246,1.152-0.342,2.27-1.369,2.488
			c-0.752,0.162-1.443-0.396-1.786-0.803c-0.104,0.566-0.414,1.458-1.312,1.651c-1.095,0.233-2.093-0.564-2.342-1.727l-0.518-2.423
			c-0.023-0.105,0.047-0.204,0.146-0.224L88.01,284.487z M83.271,288.026c0.081,0.381,0.463,0.636,0.863,0.549
			c0.392-0.082,0.594-0.566,0.514-0.948l-0.169-0.79l-1.397,0.299L83.271,288.026z M85.911,287.326
			c0.079,0.371,0.459,0.617,0.85,0.533c0.391-0.082,0.597-0.453,0.518-0.823l-0.164-0.764l-1.368,0.293L85.911,287.326z"/>
		<path d="M89.432,290.798c0.097-0.025,0.205,0.028,0.233,0.134l0.314,1.146c0.027,0.097-0.037,0.206-0.132,0.233l-5.141,1.412
			l0.63,2.292c0.028,0.104-0.037,0.206-0.133,0.232l-1.049,0.289c-0.096,0.027-0.205-0.028-0.233-0.134l-0.995-3.619
			c-0.029-0.108,0.036-0.207,0.133-0.233L89.432,290.798z"/>
		<path d="M84.532,297.612l7.369,0.772c0.066,0.008,0.137,0.058,0.159,0.124l0.032,0.096c0.022,0.065-0.003,0.146-0.049,0.195
			l-5.337,5.139c-0.104,0.099-0.251,0.065-0.301-0.076l-0.361-1.049c-0.058-0.169-0.027-0.264,0.124-0.411l0.629-0.595l-0.882-2.568
			l-0.872-0.08c-0.129-0.009-0.279-0.074-0.344-0.263l-0.357-1.038C84.293,297.717,84.391,297.599,84.532,297.612z M87.887,300.8
			l1.311-1.255l-0.003-0.009l-1.801-0.173L87.887,300.8z"/>
		<path d="M94.782,305.578c0.386,0.92,0.387,1.724,0.078,2.59c-0.039,0.113-0.149,0.16-0.253,0.116l-1.049-0.406
			c-0.091-0.037-0.134-0.139-0.095-0.229c0.161-0.47,0.137-0.99-0.052-1.442c-0.437-1.041-1.624-1.439-2.657-1.007
			c-1.022,0.429-1.544,1.558-1.107,2.6c0.183,0.433,0.537,0.838,0.961,1.049c0.081,0.041,0.132,0.161,0.091,0.243l-0.463,1.038
			c-0.039,0.093-0.162,0.134-0.252,0.096c-0.871-0.37-1.489-1.043-1.833-1.863c-0.774-1.841,0.068-3.94,1.91-4.713
			C91.901,302.873,94.008,303.735,94.782,305.578z"/>
		<path d="M96.054,309.31c0.116-0.057,0.258-0.016,0.322,0.109l0.524,1.044c0.059,0.113,0.01,0.263-0.106,0.321l-2.346,1.179
			l3.467,0.738c0.062,0.014,0.147,0.072,0.173,0.125l0.565,1.124c0.085,0.169-0.066,0.357-0.249,0.327l-3.664-0.775l-1.819,3.764
			c-0.084,0.165-0.33,0.166-0.417-0.002l-0.617-1.231c-0.031-0.063-0.037-0.16-0.019-0.193l1.766-3.469l-2.659,1.336
			c-0.116,0.059-0.264,0.011-0.322-0.106l-0.525-1.041c-0.062-0.127-0.009-0.267,0.107-0.323L96.054,309.31z"/>
		<path d="M99.307,315.554c0.086-0.049,0.209-0.018,0.261,0.065l0.609,1.022c0.056,0.095,0.019,0.21-0.066,0.262l-2.162,1.287
			l1.462,2.453l2.162-1.288c0.085-0.051,0.204-0.028,0.261,0.067l0.607,1.019c0.051,0.085,0.021,0.209-0.065,0.262l-5.678,3.383
			c-0.086,0.051-0.21,0.02-0.261-0.065l-0.608-1.02c-0.055-0.094-0.019-0.208,0.066-0.262l2.256-1.344l-1.461-2.454l-2.257,1.345
			c-0.085,0.051-0.204,0.028-0.259-0.065l-0.609-1.02c-0.051-0.085-0.021-0.209,0.066-0.262L99.307,315.554z"/>
		<path d="M97.615,325.406l7.301-1.285c0.066-0.008,0.147,0.019,0.188,0.078l0.058,0.081c0.04,0.057,0.038,0.144,0.007,0.202
			l-3.723,6.41c-0.071,0.125-0.224,0.133-0.31,0.012l-0.634-0.91c-0.103-0.147-0.1-0.248,0.004-0.43l0.441-0.748l-1.556-2.226
			l-0.86,0.164c-0.126,0.027-0.288,0.006-0.403-0.158l-0.628-0.901C97.413,325.571,97.473,325.434,97.615,325.406z M101.718,327.55
			l0.917-1.567l-0.006-0.008l-1.779,0.329L101.718,327.55z"/>
		<path d="M106.846,327.348c0.083-0.119,0.211-0.121,0.299-0.012l0.737,0.905c0.05,0.063,0.046,0.167,0.004,0.228l-2.081,2.803
			l0.026,0.029l3.7-1.016c0.066-0.017,0.142,0,0.193,0.061l0.114,0.141c0.056,0.069,0.056,0.147,0.021,0.201l-1.747,3.418
			l0.025,0.03l3.166-1.471c0.066-0.028,0.171-0.012,0.222,0.051l0.736,0.905c0.089,0.108,0.063,0.232-0.071,0.292l-6.392,2.772
			c-0.075,0.033-0.171,0.011-0.222-0.052l-0.102-0.123c-0.043-0.054-0.05-0.141-0.022-0.201l2.012-3.994l-0.019-0.022l-4.312,1.168
			c-0.065,0.015-0.147-0.008-0.192-0.062l-0.101-0.123c-0.05-0.063-0.056-0.164-0.005-0.231L106.846,327.348z"/>
		<path d="M113.157,334.898c0.093-0.09,0.241-0.095,0.338,0.008l0.806,0.846c0.089,0.094,0.087,0.249-0.007,0.339l-1.902,1.812
			l3.533-0.302c0.063-0.008,0.162,0.022,0.203,0.067l0.87,0.911c0.129,0.139,0.039,0.363-0.144,0.387l-3.732,0.326l-0.644,4.134
			c-0.033,0.183-0.267,0.254-0.398,0.116l-0.951-0.999c-0.048-0.05-0.082-0.142-0.073-0.177l0.679-3.836l-2.156,2.055
			c-0.094,0.089-0.249,0.087-0.339-0.008l-0.807-0.846c-0.096-0.103-0.087-0.249,0.008-0.341L113.157,334.898z"/>
		<path d="M113.854,343.945l0.907-0.29c0.147-0.041,0.272,0.105,0.291,0.187c0.015,0.044,0.182,0.919,0.666,1.366
			c0.292,0.272,0.675,0.287,0.912,0.029c0.286-0.308,0.247-0.778-0.068-1.438c-0.399-0.832-0.734-2.057,0.08-2.935
			c0.671-0.726,1.915-0.936,3.042,0.11c0.762,0.707,0.988,1.636,1.058,2.002c0.041,0.133-0.095,0.251-0.172,0.276l-0.896,0.217
			c-0.125,0.032-0.318-0.024-0.337-0.136c-0.031-0.098-0.192-0.994-0.639-1.409c-0.263-0.245-0.624-0.254-0.807-0.055
			c-0.251,0.271-0.222,0.679,0.139,1.447c0.36,0.76,0.855,2.046-0.067,3.042c-0.7,0.755-2.058,0.911-3.135-0.087
			c-0.951-0.882-1.112-1.764-1.124-2.092C113.695,344.045,113.699,343.991,113.854,343.945z"/>
		<path d="M124.455,345.532c0.062-0.079,0.179-0.102,0.266-0.034l3.254,2.551c0.087,0.07,0.094,0.187,0.032,0.267l-0.671,0.855
			c-0.062,0.08-0.179,0.102-0.267,0.034l-2.177-1.706l-0.887,1.131l1.792,1.405c0.079,0.061,0.094,0.187,0.032,0.266l-0.671,0.855
			c-0.061,0.079-0.188,0.096-0.266,0.033l-1.792-1.404l-1.498,1.909c-0.062,0.079-0.188,0.096-0.268,0.033L120.409,351
			c-0.085-0.067-0.094-0.188-0.033-0.268L124.455,345.532z"/>
		<path d="M131.893,350.682c0.823,0.566,1.257,1.239,1.466,2.135c0.029,0.116-0.039,0.215-0.151,0.236l-1.1,0.226
			c-0.098,0.017-0.188-0.043-0.206-0.142c-0.118-0.48-0.419-0.906-0.823-1.183c-0.931-0.641-2.147-0.336-2.781,0.588
			c-0.627,0.914-0.456,2.146,0.473,2.784c0.389,0.268,0.904,0.418,1.376,0.364c0.091-0.011,0.198,0.063,0.208,0.156l0.173,1.122
			c0.018,0.098-0.063,0.2-0.161,0.218c-0.934,0.16-1.817-0.072-2.551-0.574c-1.647-1.132-2.073-3.353-0.942-5
			C128.009,349.966,130.245,349.551,131.893,350.682z"/>
		<path d="M141.898,357.021c0.045-0.09,0.156-0.136,0.255-0.086l3.703,1.838c0.1,0.049,0.131,0.164,0.086,0.254l-0.483,0.977
			c-0.046,0.089-0.156,0.133-0.255,0.086l-2.478-1.23l-0.551,1.11l2.04,1.012c0.089,0.043,0.13,0.164,0.085,0.254l-0.484,0.976
			c-0.049,0.097-0.165,0.13-0.253,0.084l-2.04-1.01l-0.599,1.204l2.478,1.229c0.099,0.05,0.13,0.165,0.086,0.256l-0.484,0.975
			c-0.044,0.089-0.156,0.136-0.253,0.087l-3.705-1.839c-0.098-0.047-0.13-0.165-0.086-0.255L141.898,357.021z"/>
		<path d="M144.829,364.949l0.757-0.577c0.125-0.087,0.292,0.005,0.336,0.076c0.029,0.034,0.483,0.803,1.089,1.062
			c0.368,0.156,0.733,0.041,0.869-0.281c0.165-0.386-0.032-0.817-0.551-1.33c-0.657-0.649-1.387-1.688-0.917-2.789
			c0.387-0.91,1.486-1.526,2.9-0.924c0.957,0.405,1.483,1.205,1.674,1.526c0.083,0.11-0.007,0.269-0.07,0.316l-0.771,0.508
			c-0.107,0.074-0.307,0.086-0.363-0.013c-0.063-0.082-0.519-0.872-1.079-1.112c-0.331-0.14-0.672-0.024-0.778,0.224
			c-0.145,0.34,0.021,0.715,0.622,1.317c0.595,0.589,1.497,1.635,0.963,2.886c-0.402,0.945-1.628,1.554-2.977,0.977
			c-1.195-0.508-1.645-1.286-1.767-1.586C144.713,365.095,144.701,365.048,144.829,364.949z"/>
		<path d="M153.294,363.461l-1.342-0.486c-0.104-0.038-0.148-0.15-0.114-0.245l0.372-1.022c0.034-0.095,0.14-0.151,0.244-0.113
			l4.167,1.514c0.104,0.038,0.148,0.149,0.114,0.243l-0.372,1.023c-0.034,0.095-0.14,0.153-0.244,0.114l-1.342-0.489l-1.821,5.013
			c-0.034,0.095-0.149,0.147-0.243,0.113l-1.126-0.408c-0.093-0.035-0.148-0.15-0.114-0.243L153.294,363.461z"/>
		<path d="M156.273,368.434c0.494,0.162,0.775,0.716,0.615,1.208c-0.157,0.486-0.709,0.759-1.202,0.599
			c-0.485-0.157-0.761-0.699-0.603-1.186C155.243,368.565,155.789,368.276,156.273,368.434z"/>
		<path d="M160.497,371.243c0.74-0.606,2.642-2.214,3.424-2.95c0.173-0.166,0.364-0.407,0.429-0.678
			c0.088-0.369-0.144-0.773-0.687-0.905c-0.399-0.094-0.825,0.103-1.059,0.261c-0.096,0.061-0.213,0.032-0.272-0.063l-0.449-0.745
			c-0.053-0.073-0.035-0.191,0.051-0.253c0,0,1.014-0.765,2.169-0.489c1.389,0.332,1.994,1.41,1.737,2.487
			c-0.123,0.516-0.339,0.772-0.68,1.174c-0.444,0.479-1.488,1.326-2.097,1.859l1.71,0.409c0.097,0.022,0.163,0.131,0.141,0.228
			l-0.208,0.875c-0.023,0.098-0.132,0.163-0.229,0.14l-3.886-0.926c-0.106-0.027-0.163-0.132-0.14-0.229L160.497,371.243z"/>
		<path d="M166.853,369.696c0.423-2.146,1.587-3.249,3.184-2.937c1.598,0.314,2.256,1.777,1.834,3.924
			c-0.422,2.146-1.586,3.25-3.183,2.937C167.09,373.305,166.431,371.843,166.853,369.696z M170.294,370.372
			c0.252-1.283,0.062-2.073-0.537-2.191c-0.598-0.119-1.074,0.542-1.326,1.826c-0.254,1.294-0.062,2.074,0.536,2.193
			C169.564,372.316,170.038,371.668,170.294,370.372z"/>
		<path d="M173.257,370.914c0.295-2.169,1.391-3.341,3.005-3.122c1.615,0.219,2.359,1.643,2.065,3.811
			c-0.295,2.169-1.392,3.341-3.004,3.122C173.709,374.504,172.963,373.083,173.257,370.914z M176.733,371.385
			c0.176-1.295-0.061-2.074-0.666-2.157c-0.604-0.081-1.041,0.606-1.216,1.903c-0.177,1.306,0.062,2.076,0.665,2.157
			C176.121,373.37,176.556,372.692,176.733,371.385z"/>
		<path d="M179.73,371.746c0.161-2.182,1.185-3.42,2.808-3.3c1.625,0.12,2.454,1.492,2.293,3.676
			c-0.161,2.184-1.184,3.419-2.808,3.299C180.399,375.3,179.57,373.928,179.73,371.746z M183.228,372.005
			c0.096-1.307-0.188-2.069-0.795-2.113c-0.608-0.046-1.001,0.668-1.098,1.975c-0.097,1.314,0.188,2.066,0.796,2.109
			C182.739,374.021,183.13,373.319,183.228,372.005z"/>
	</g>
</g>
</svg>
