<?xml version="1.0" encoding="utf-8"?>
<!-- Generator: Adobe Illustrator 16.0.3, SVG Export Plug-In . SVG Version: 6.00 Build 0)  -->
<!DOCTYPE svg PUBLIC "-//W3C//DTD SVG 1.1//EN" "http://www.w3.org/Graphics/SVG/1.1/DTD/svg11.dtd">
<svg version="1.1" id="Layer_1" xmlns="http://www.w3.org/2000/svg" xmlns:xlink="http://www.w3.org/1999/xlink" x="0px" y="0px"
	 width="380px" height="529px" viewBox="0 0 380 529" enable-background="new 0 0 380 529" xml:space="preserve">
<g id="Layer_1_1_" display="none">
</g>
<g id="Layer_2" display="none">
</g>
<g id="Layer_3">
	<g>
		<polygon points="184.973,312.001 202.852,305.598 206.402,300.508 213.038,273.054 211.234,257.221 196.309,261.533 
			191.635,255.897 189.666,269.525 173.58,289.807 		"/>
		<path d="M189.889,201.177l-11.906-10.802l-11.264-4.298l-10.437-12.202l-5.953-0.882l-12.618,6.811l-9.357,1.568l-1.029,14.186
			l10.363,9.173l6.153,0.125l-1.523-6.286l5.019-3.639l4.684-0.183l1.504,2.017l-0.721,3.128l-4.41-0.221l2.269,7.144l7.937,1.763
			l2.241-8.979l4.852-4.263l7.231,6.119l4.233,8.434l5.979,19.146l5.012-10.523l5.879-3.626l6.037,1.765L189.889,201.177z
			 M143.289,187.547l-1.617-0.885l1.92-2.688l1.573-0.217l0.176,1.789L143.289,187.547z"/>
		<g>
			<path d="M217.275,366.959c-1.113,0-2.049,0.378-2.808,1.137c-0.76,0.76-1.139,1.696-1.139,2.809v13.963h7.815v-13.963
				c0-1.111-0.379-2.047-1.138-2.809C219.25,367.338,218.339,366.959,217.275,366.959z"/>
			<path d="M193.447,366.959h-3.869v17.908h3.869c1.062,0,1.974-0.378,2.732-1.137c0.76-0.76,1.139-1.672,1.139-2.732v-10.094
				c0-1.111-0.379-2.047-1.139-2.809C195.421,367.338,194.51,366.959,193.447,366.959z"/>
			<path d="M170.075,366.959h-3.946v40.75h3.946c1.062,0,1.974-0.378,2.731-1.139c0.759-0.758,1.139-1.669,1.139-2.731v-32.937
				c0-1.11-0.38-2.047-1.139-2.807C172.049,367.338,171.138,366.959,170.075,366.959z"/>
			<path d="M133.102,338.092c-0.6,0-1.105,0.207-1.516,0.616c-0.409,0.409-0.615,0.901-0.615,1.476v4.098h4.221v-4.098
				c0-0.574-0.204-1.065-0.614-1.476C134.168,338.298,133.676,338.092,133.102,338.092z"/>
			<path d="M278.74,83H96.846l6.617,344.252L283.154,431L278.74,83z M132.664,411.353c0,0.812-0.406,1.216-1.214,1.216h-2.354
				c-0.81,0-1.214-0.404-1.214-1.216V389.8h-7.816v21.552c0,0.812-0.405,1.216-1.215,1.216h-2.428c-0.81,0-1.215-0.404-1.215-1.216
				v-47.961v-0.076c0-0.301,0.115-0.58,0.343-0.834c0.228-0.252,0.517-0.377,0.872-0.377h2.428c0.354,0,0.646,0.125,0.873,0.377
				c0.229,0.254,0.342,0.533,0.342,0.834v21.629h7.816v-21.629c0-0.301,0.114-0.58,0.342-0.834c0.227-0.252,0.518-0.377,0.872-0.377
				h2.354c0.353,0,0.645,0.125,0.872,0.377c0.227,0.254,0.342,0.533,0.342,0.834V411.353z M122.326,344.24v-8.155
				c0-0.19,0.068-0.349,0.205-0.471c0.137-0.123,0.286-0.186,0.45-0.186h1.312c0.436,0,0.654,0.22,0.654,0.655v18.973
				c0,0.438-0.219,0.654-0.654,0.654h-1.312c-0.164,0-0.313-0.062-0.45-0.184c-0.137-0.123-0.205-0.28-0.205-0.473v-8.195h-4.18
				v8.195c0,0.438-0.22,0.655-0.656,0.655h-1.311c-0.438,0-0.656-0.217-0.656-0.655v-18.972c0-0.437,0.219-0.655,0.656-0.655h1.311
				c0.437,0,0.656,0.219,0.656,0.655v8.155h4.18V344.24z M137.814,355.057c0,0.438-0.219,0.655-0.656,0.655h-1.311
				c-0.438,0-0.656-0.217-0.656-0.655v-8.154h-4.221v8.154c0,0.438-0.219,0.655-0.654,0.655h-1.312
				c-0.438,0-0.654-0.217-0.654-0.655v-14.873c0-0.656,0.123-1.265,0.367-1.824c0.246-0.559,0.588-1.059,1.025-1.494
				c0.438-0.438,0.941-0.78,1.516-1.025c0.574-0.246,1.189-0.369,1.844-0.369c0.656,0,1.264,0.123,1.824,0.369
				c0.56,0.245,1.059,0.587,1.496,1.025c0.436,0.436,0.777,0.936,1.023,1.494c0.246,0.561,0.369,1.168,0.369,1.824V355.057
				L137.814,355.057z M155.732,380.999c0,2.024-0.596,3.794-1.783,5.312c-1.189,1.518-2.694,2.556-4.516,3.112v21.931
				c0,0.354-0.127,0.646-0.379,0.873c-0.254,0.229-0.531,0.343-0.834,0.343h-2.43c-0.809,0-1.213-0.404-1.213-1.216v-21.931
				c-1.873-0.557-3.404-1.595-4.592-3.112c-1.189-1.517-1.783-3.287-1.783-5.312v-17.683c0-0.303,0.113-0.582,0.342-0.834
				c0.227-0.252,0.518-0.379,0.873-0.379h2.427c0.354,0,0.646,0.127,0.872,0.379c0.229,0.252,0.343,0.531,0.343,0.834v17.683
				c0,1.062,0.38,1.974,1.139,2.731c0.759,0.758,1.694,1.138,2.808,1.138c1.062,0,1.974-0.378,2.732-1.138
				c0.758-0.758,1.139-1.67,1.139-2.731v-17.683c0-0.303,0.113-0.582,0.34-0.834c0.229-0.252,0.52-0.379,0.873-0.379h2.43
				c0.353,0,0.645,0.127,0.872,0.379c0.228,0.252,0.341,0.531,0.341,0.834L155.732,380.999L155.732,380.999z M144.043,352.475
				c0.408,0.412,0.901,0.616,1.475,0.616c0.574,0,1.064-0.204,1.475-0.616c0.41-0.408,0.615-0.9,0.615-1.476
				c0-0.271-0.008-0.437-0.02-0.491c-0.016-0.054-0.049-0.123-0.104-0.204l-5.695-7.54c-0.246-0.328-0.438-0.587-0.574-0.779
				c-0.136-0.191-0.232-0.368-0.287-0.531c-0.055-0.165-0.088-0.342-0.102-0.534c-0.016-0.19-0.021-0.451-0.021-0.778
				c0-0.656,0.122-1.264,0.368-1.824c0.246-0.56,0.588-1.059,1.023-1.496c0.438-0.436,0.936-0.777,1.497-1.023
				c0.56-0.246,1.167-0.369,1.823-0.369c0.656,0,1.264,0.123,1.824,0.369c0.559,0.246,1.057,0.588,1.494,1.023
				c0.438,0.438,0.779,0.937,1.025,1.496c0.246,0.561,0.369,1.168,0.369,1.824v1.394c0,0.437-0.219,0.655-0.656,0.655h-1.312
				c-0.438,0-0.655-0.22-0.655-0.655v-1.394c0-0.574-0.205-1.064-0.615-1.476c-0.41-0.409-0.9-0.614-1.475-0.614
				c-0.573,0-1.066,0.205-1.475,0.614c-0.41,0.411-0.615,0.901-0.615,1.476c0,0.272,0.006,0.438,0.02,0.492
				c0.014,0.055,0.049,0.123,0.104,0.205l5.695,7.54c0.246,0.328,0.436,0.586,0.572,0.778c0.139,0.191,0.232,0.369,0.289,0.531
				c0.055,0.166,0.088,0.343,0.102,0.533c0.014,0.191,0.021,0.45,0.021,0.777c0,0.655-0.123,1.266-0.369,1.825
				s-0.588,1.059-1.025,1.495c-0.438,0.437-0.936,0.779-1.494,1.025c-0.561,0.244-1.168,0.367-1.824,0.367
				c-0.656,0-1.264-0.123-1.823-0.367c-0.562-0.246-1.06-0.589-1.497-1.025c-0.436-0.437-0.777-0.936-1.023-1.495
				s-0.368-1.169-0.368-1.825v-1.393c0-0.436,0.218-0.654,0.655-0.654h1.311c0.438,0,0.656,0.219,0.656,0.654V351
				C143.428,351.574,143.633,352.066,144.043,352.475z M159.204,337.396c0,0.437-0.219,0.655-0.656,0.655h-1.844v17.005
				c0,0.164-0.062,0.314-0.185,0.45c-0.123,0.138-0.281,0.205-0.471,0.205h-1.312c-0.19,0-0.349-0.067-0.472-0.205
				c-0.123-0.136-0.185-0.286-0.185-0.45v-17.005h-1.843c-0.438,0-0.656-0.219-0.656-0.655v-1.312c0-0.437,0.218-0.655,0.656-0.655
				h6.31c0.438,0,0.656,0.219,0.656,0.655v1.312H159.204z M178.801,403.84c0,1.214-0.227,2.34-0.682,3.378
				c-0.455,1.037-1.076,1.96-1.859,2.771c-0.784,0.81-1.707,1.44-2.77,1.896c-1.063,0.454-2.201,0.684-3.415,0.684h-6.376
				c-0.656,0-1.226-0.229-1.707-0.684c-0.48-0.456-0.721-1.037-0.721-1.745v-45.61c0-0.656,0.24-1.225,0.721-1.707
				c0.481-0.479,1.051-0.721,1.707-0.721h6.376c1.214,0,2.352,0.227,3.415,0.684c1.062,0.456,1.985,1.088,2.77,1.896
				c0.783,0.81,1.404,1.745,1.859,2.809c0.455,1.062,0.682,2.201,0.682,3.414V403.84z M161.58,355.057v-18.972
				c0-0.437,0.219-0.655,0.656-0.655h1.311c0.164,0,0.313,0.062,0.451,0.186c0.135,0.123,0.205,0.279,0.205,0.471v18.973
				c0,0.438-0.221,0.654-0.656,0.654h-1.311C161.799,355.712,161.58,355.495,161.58,355.057z M173.832,338.666
				c-0.41-0.409-0.902-0.614-1.476-0.614c-0.601,0-1.106,0.205-1.517,0.614c-0.41,0.411-0.614,0.9-0.614,1.475v14.916
				c0,0.166-0.062,0.315-0.185,0.451c-0.123,0.139-0.281,0.205-0.471,0.205h-1.312c-0.192,0-0.349-0.066-0.472-0.205
				c-0.123-0.136-0.184-0.285-0.184-0.451v-14.916c0-0.654,0.122-1.263,0.368-1.822c0.245-0.561,0.587-1.06,1.024-1.496
				s0.942-0.778,1.517-1.024c0.573-0.246,1.188-0.368,1.844-0.368s1.263,0.122,1.823,0.368c0.559,0.246,1.059,0.588,1.496,1.024
				c0.436,0.437,0.778,0.936,1.023,1.496c0.246,0.56,0.369,1.166,0.369,1.822v14.916c0,0.166-0.062,0.315-0.185,0.451
				c-0.123,0.139-0.28,0.205-0.471,0.205h-1.312c-0.191,0-0.35-0.066-0.472-0.205c-0.122-0.136-0.185-0.285-0.185-0.451v-14.916
				C174.445,339.566,174.24,339.077,173.832,338.666z M181.862,354.34c-0.437-0.424-0.778-0.915-1.024-1.477
				c-0.246-0.559-0.369-1.166-0.369-1.822v-10.857c0-0.656,0.123-1.271,0.369-1.846s0.588-1.072,1.024-1.496
				c0.437-0.423,0.937-0.758,1.495-1.003c0.561-0.246,1.169-0.369,1.824-0.369c0.656,0,1.263,0.123,1.824,0.369
				c0.559,0.245,1.057,0.58,1.496,1.003c0.436,0.424,0.777,0.921,1.023,1.496c0.246,0.574,0.369,1.189,0.369,1.846v1.392
				c0,0.438-0.22,0.657-0.656,0.657h-1.312c-0.437,0-0.655-0.219-0.655-0.657v-1.392c0-0.602-0.205-1.1-0.615-1.496
				c-0.409-0.396-0.9-0.597-1.475-0.597c-0.573,0-1.066,0.199-1.475,0.597c-0.411,0.396-0.615,0.895-0.615,1.496v10.857
				c0,0.574,0.204,1.064,0.615,1.475c0.408,0.409,0.901,0.614,1.475,0.614c0.574,0,1.065-0.205,1.475-0.614
				c0.41-0.41,0.615-0.9,0.615-1.475v-4.221h-1.434c-0.191,0-0.35-0.062-0.472-0.185c-0.123-0.122-0.185-0.266-0.185-0.431v-1.311
				c0-0.437,0.219-0.655,0.656-0.655h3.4c0.437,0,0.656,0.219,0.656,0.655v6.146c0,0.655-0.123,1.263-0.369,1.823
				s-0.588,1.052-1.023,1.476c-0.439,0.423-0.938,0.759-1.496,1.004c-0.562,0.245-1.168,0.368-1.824,0.368
				c-0.655,0-1.264-0.123-1.824-0.368C182.799,355.098,182.299,354.764,181.862,354.34z M202.176,380.999
				c0,2.528-0.887,4.629-2.658,6.298c1.771,1.669,2.658,3.794,2.658,6.374v17.682c0,0.812-0.406,1.216-1.215,1.216h-2.43
				c-0.809,0-1.213-0.404-1.213-1.216v-17.682c0-1.11-0.379-2.049-1.139-2.808c-0.76-0.76-1.671-1.139-2.732-1.139h-3.869v21.627
				c0,0.354-0.127,0.646-0.381,0.873c-0.253,0.229-0.529,0.343-0.834,0.343h-2.428c-0.811,0-1.215-0.404-1.215-1.216v-46.822
				c0-0.656,0.229-1.225,0.682-1.707c0.457-0.479,1.038-0.721,1.747-0.721h6.298c1.215,0,2.354,0.227,3.416,0.684
				c1.062,0.456,1.984,1.088,2.77,1.896c0.783,0.81,1.404,1.745,1.859,2.809c0.455,1.062,0.684,2.201,0.684,3.414V380.999
				L202.176,380.999z M202.309,341.535c0,0.438-0.219,0.654-0.654,0.654h-1.312c-0.438,0-0.653-0.219-0.653-0.654v-1.395
				c0-0.574-0.205-1.063-0.615-1.475c-0.41-0.409-0.901-0.614-1.477-0.614c-0.572,0-1.064,0.205-1.474,0.614
				c-0.41,0.411-0.616,0.9-0.616,1.475c0,0.273,0.008,0.438,0.021,0.493c0.014,0.056,0.049,0.123,0.103,0.205l5.695,7.54
				c0.246,0.328,0.437,0.586,0.573,0.778c0.136,0.192,0.231,0.368,0.287,0.532s0.09,0.342,0.103,0.531
				c0.013,0.192,0.021,0.451,0.021,0.778c0,0.655-0.123,1.267-0.367,1.825c-0.246,0.561-0.59,1.059-1.024,1.496
				c-0.438,0.436-0.937,0.777-1.495,1.023c-0.562,0.245-1.169,0.368-1.824,0.368c-0.654,0-1.264-0.123-1.822-0.368
				c-0.562-0.246-1.06-0.588-1.496-1.023c-0.438-0.438-0.778-0.936-1.025-1.496c-0.244-0.559-0.367-1.169-0.367-1.825v-1.392
				c0-0.437,0.217-0.655,0.656-0.655h1.311c0.437,0,0.655,0.219,0.655,0.655V351c0,0.574,0.206,1.066,0.616,1.477
				c0.408,0.41,0.9,0.615,1.475,0.615c0.573,0,1.064-0.205,1.476-0.615c0.409-0.41,0.614-0.901,0.614-1.477
				c0-0.271-0.008-0.436-0.021-0.491c-0.014-0.054-0.048-0.123-0.103-0.204l-5.694-7.539c-0.247-0.328-0.438-0.588-0.574-0.779
				c-0.138-0.192-0.231-0.369-0.286-0.532c-0.056-0.165-0.091-0.343-0.104-0.534c-0.016-0.189-0.021-0.451-0.021-0.779
				c0-0.654,0.123-1.263,0.367-1.822c0.247-0.561,0.588-1.06,1.025-1.496s0.936-0.778,1.496-1.024
				c0.56-0.246,1.168-0.368,1.822-0.368c0.655,0,1.264,0.122,1.824,0.368s1.059,0.588,1.495,1.024s0.778,0.936,1.024,1.496
				c0.244,0.56,0.367,1.166,0.367,1.822v1.395H202.309z M226.004,411.353c0,0.812-0.406,1.216-1.214,1.216h-2.429
				c-0.812,0-1.215-0.404-1.215-1.216v-21.628h-7.816v21.628c0,0.812-0.405,1.216-1.213,1.216h-2.43
				c-0.304,0-0.582-0.114-0.836-0.343c-0.252-0.226-0.377-0.518-0.377-0.873v-40.448c0-1.213,0.227-2.352,0.682-3.413
				c0.455-1.063,1.088-1.999,1.896-2.808c0.809-0.81,1.745-1.441,2.809-1.897c1.062-0.457,2.201-0.683,3.414-0.683
				c1.215,0,2.34,0.226,3.379,0.683c1.035,0.456,1.959,1.088,2.77,1.897c0.809,0.809,1.441,1.744,1.897,2.808
				c0.454,1.062,0.683,2.2,0.683,3.413V411.353L226.004,411.353z M248.998,373.41c0,0.809-0.406,1.213-1.215,1.213h-2.43
				c-0.81,0-1.213-0.404-1.213-1.213v-2.582c0-1.061-0.38-1.971-1.14-2.73c-0.759-0.76-1.67-1.138-2.731-1.138
				c-1.062,0-1.973,0.378-2.731,1.138s-1.138,1.67-1.138,2.73v3.871c0,0.455,0.011,0.734,0.037,0.834
				c0.024,0.104,0.088,0.255,0.188,0.456l10.929,19.274c0.354,0.659,0.633,1.164,0.836,1.52c0.2,0.354,0.342,0.682,0.416,0.985
				c0.075,0.303,0.127,0.619,0.151,0.949s0.039,0.771,0.039,1.327v3.795c0,1.214-0.229,2.354-0.685,3.416
				c-0.455,1.062-1.088,1.986-1.896,2.771c-0.812,0.783-1.733,1.402-2.771,1.858c-1.037,0.454-2.162,0.684-3.377,0.684
				c-1.213,0-2.34-0.229-3.377-0.684c-1.037-0.456-1.961-1.075-2.771-1.858c-0.81-0.784-1.44-1.709-1.897-2.771
				c-0.455-1.062-0.683-2.202-0.683-3.416v-2.58c0-0.304,0.114-0.581,0.342-0.834s0.519-0.38,0.873-0.38h2.429
				c0.354,0,0.646,0.127,0.873,0.38c0.227,0.253,0.342,0.53,0.342,0.834v2.58c0,1.113,0.379,2.049,1.138,2.809
				c0.76,0.758,1.67,1.139,2.731,1.139s1.974-0.38,2.731-1.139c0.76-0.76,1.14-1.694,1.14-2.809v-3.795
				c0-0.403-0.015-0.657-0.039-0.758c-0.025-0.102-0.088-0.251-0.188-0.455l-10.929-19.275c-0.354-0.658-0.633-1.164-0.834-1.518
				c-0.203-0.354-0.342-0.682-0.418-0.986c-0.075-0.304-0.127-0.632-0.151-0.986c-0.026-0.354-0.038-0.81-0.038-1.367v-3.871
				c0-1.213,0.229-2.339,0.684-3.376c0.455-1.038,1.088-1.961,1.896-2.771c0.809-0.809,1.732-1.44,2.77-1.896
				c1.037-0.457,2.164-0.684,3.377-0.684c1.215,0,2.34,0.227,3.377,0.684c1.037,0.456,1.961,1.088,2.771,1.896
				c0.809,0.81,1.441,1.732,1.896,2.771c0.455,1.037,0.684,2.163,0.684,3.376V373.41z M255.59,318.913l-17.195-7.496l-18.082,6.394
				l-17.856-6.614l-20.727,6.614l-16.094-32.19l6.396-29.543l13.406-8.557l6.003,1.372l5.64,7.741l6.764-2.4l1.699-7.857
				l-5.291,1.251l-2.828-2.065l-0.036-3.594l7.582-2.679l2.695,3.719l3.169,4.471l-1.103,6.173l6.951-2.996l7.396-11.66
				l-2.69-13.438l-9.701-0.883l-15.769-4.997l-5.445,3.364l-6.789,16.186l-22.279,5.793l-3.969,4.41l-16.762,31.752l10.674,34.752
				l-23.414-6.062l-15.432,7.058V95.347l150.586,2.646l6.613,214.084L255.59,318.913z M207.25,233.287v-1.745l1.309-0.458
				l2.325,2.299l-0.969,1.066L207.25,233.287z"/>
		</g>
		<g>
			<polygon points="215.061,124.522 210.339,123.944 203.031,115.586 210.617,109.011 218.047,118.309 217.355,122.487 
				224.031,131.153 222.809,132.648 			"/>
			<polygon points="233.062,132.409 231.773,131.305 238.336,122.44 237.785,118.734 244.127,109.011 252.529,115.302 
				245.094,123.732 240.303,124.335 			"/>
			<polygon points="225.027,134.955 226.389,133.365 228.064,134.852 229.705,133.488 231.121,134.428 229.525,136.211 
				230.646,137.873 229.525,138.986 227.971,137.627 226.389,138.986 224.883,137.873 226.411,136.175 			"/>
			<polygon points="223.102,140.239 217.48,145.869 216.262,144.696 214.723,146.765 218.42,149.868 220.141,148.078 
				219.186,147.124 224.449,141.416 			"/>
			<polygon points="231.773,141.593 233.104,140.25 238.488,145.947 239.625,144.894 241.239,146.877 238.018,149.861 
				236.102,147.797 237.182,147.082 			"/>
		</g>
	</g>
</g>
<g id="circles_for_icons">
</g>
</svg>
