<?xml version="1.0" encoding="utf-8"?>
<!-- Generator: Adobe Illustrator 16.0.3, SVG Export Plug-In . SVG Version: 6.00 Build 0)  -->
<!DOCTYPE svg PUBLIC "-//W3C//DTD SVG 1.1//EN" "http://www.w3.org/Graphics/SVG/1.1/DTD/svg11.dtd">
<svg version="1.1" xmlns="http://www.w3.org/2000/svg" xmlns:xlink="http://www.w3.org/1999/xlink" x="0px" y="0px" width="1414px"
	 height="1271px" viewBox="0 0 1414 1271" enable-background="new 0 0 1414 1271" xml:space="preserve">
<g id="Layer_1" display="none">
</g>
<g id="Layer_2" display="none">
</g>
<g id="Layer_3">
	<g>
		<path fill="#FFFFFF" d="M857.191,604.218c0-0.987,0.785-1.864,1.856-1.864h8.985c0.986,0,1.863,0.877,1.863,1.864v54.814h24.92
			c1.082,0,1.856,0.884,1.856,1.858v8.011c0,0.986-0.774,1.864-1.856,1.864h-35.769c-1.071,0-1.856-0.878-1.856-1.864V604.218z"/>
	</g>
	<g>
		
			<rect x="550.757" y="640.039" transform="matrix(0.7071 0.7071 -0.7071 0.7071 661.4205 -311.1658)" fill="#FFFFFF" width="311.141" height="5.597"/>
	</g>
	<g>
		
			<rect x="593.523" y="520.227" transform="matrix(0.7069 0.7073 -0.7073 0.7069 551.6218 -265.6121)" fill="#FFFFFF" width="5.597" height="25.202"/>
	</g>
	<g>
		<polygon fill="#FFFFFF" points="809.416,763.732 805.454,759.771 823.258,741.961 827.213,745.919 		"/>
	</g>
	<g>
		
			<rect x="703.536" y="487.271" transform="matrix(0.7072 0.707 -0.707 0.7072 661.3173 -311.1649)" fill="#FFFFFF" width="5.595" height="311.132"/>
	</g>
	<g>
		<polygon fill="#FFFFFF" points="823.258,543.715 805.454,525.899 809.416,521.941 827.213,539.756 		"/>
	</g>
	<g>
		
			<rect x="583.721" y="750.048" transform="matrix(0.7074 0.7069 -0.7069 0.7074 706.6616 -201.1985)" fill="#FFFFFF" width="25.201" height="5.597"/>
	</g>
	<g>
		<path fill="#FFFFFF" d="M665.267,457.79c-0.394-1.368,0.393-2.342,1.747-2.342h8.998c0.773,0,1.562,0.678,1.762,1.367
			l10.16,38.992h0.393l15.539-40.263c0.193-0.586,0.677-1.077,1.656-1.077h1.762c0.975,0,1.465,0.491,1.664,1.077l15.637,40.263
			h0.381l9.973-38.992c0.198-0.689,0.986-1.367,1.761-1.367h8.991c1.367,0,2.154,0.974,1.76,2.342l-18.467,65.671
			c-0.202,0.787-0.975,1.368-1.761,1.368h-1.567c-0.883,0-1.464-0.479-1.662-1.071l-17.482-44.274h-0.502l-17.3,44.274
			c-0.286,0.592-0.679,1.071-1.653,1.071h-1.561c-0.785,0-1.566-0.581-1.76-1.368L665.267,457.79z"/>
	</g>
	<g>
		<path fill="#FFFFFF" d="M519.723,668.225l30.399-65.769c0.284-0.594,0.772-1.082,1.664-1.082h0.969
			c0.974,0,1.366,0.488,1.663,1.082l30.104,65.769c0.582,1.271-0.199,2.541-1.665,2.541h-8.506c-1.466,0-2.143-0.593-2.833-1.96
			l-4.787-10.553h-29.226l-4.79,10.553c-0.382,0.986-1.273,1.96-2.821,1.96h-8.508C519.922,670.766,519.135,669.495,519.723,668.225
			z M561.939,647.409l-9.771-21.5h-0.297l-9.579,21.5H561.939z"/>
	</g>
	<g>
		<g>
			<path fill="#FFFFFF" d="M680.707,833.279L659,839.863l6.584-21.705C671.205,817.946,680.893,827.688,680.707,833.279"/>
		</g>
		<g>
			<path fill="#FFFFFF" d="M745.938,778.817l-0.412,0.418l-25.401-25.401l0.409-0.418
				C731.967,741.991,757.664,767.109,745.938,778.817"/>
		</g>
		<g>
			<path fill="#FFFFFF" d="M712.449,761l25.414,25.415l-39.9,39.887c-1.084,1.097-1.967,0.788-1.967,0.788l2.039-13.549
				l-12.77,0.056l0.068-12.762l-13.559,2.045c0,0-0.311-0.896,0.785-1.979L712.449,761z"/>
		</g>
	</g>
</g>
<g id="circles_for_icons">
</g>
</svg>
