<?xml version="1.0" encoding="utf-8"?>
<!-- Generator: Adobe Illustrator 16.0.3, SVG Export Plug-In . SVG Version: 6.00 Build 0)  -->
<!DOCTYPE svg PUBLIC "-//W3C//DTD SVG 1.1//EN" "http://www.w3.org/Graphics/SVG/1.1/DTD/svg11.dtd">
<svg version="1.1" xmlns="http://www.w3.org/2000/svg" xmlns:xlink="http://www.w3.org/1999/xlink" x="0px" y="0px" width="1414px"
	 height="1271px" viewBox="0 0 1414 1271" enable-background="new 0 0 1414 1271" xml:space="preserve">
<g id="Layer_1" display="none">
</g>
<g id="Layer_2" display="none">
</g>
<g id="Layer_3">
	<g>
		<path fill="#898888" d="M710.065,714.846c0,0.139-0.113,0.252-0.252,0.252h-1.121c-0.139,0-0.252-0.113-0.252-0.252V673.75
			c0-0.141,0.113-0.254,0.252-0.254h1.121c0.139,0,0.252,0.113,0.252,0.254V714.846z"/>
	</g>
	<g>
		<path fill="#3099B7" d="M332.48,562.451v39.644h22.839c2.8,0,4.202,1.402,4.202,4.198v8.402c0,2.799-1.402,4.199-4.202,4.199
			H332.48v39.904h22.839c2.8,0,4.202,1.404,4.202,4.204v8.399c0,2.802-1.402,4.201-4.202,4.201h-31.238
			c-2.456,0-4.465-0.831-6.043-2.496c-1.572-1.66-2.359-3.628-2.359-5.903V554.045c0-2.443,0.787-4.463,2.359-6.031
			c1.578-1.578,3.587-2.365,6.043-2.365h31.238c2.8,0,4.202,1.404,4.202,4.199v8.404c0,2.799-1.402,4.199-4.202,4.199H332.48z"/>
		<path fill="#3099B7" d="M441.696,550.115v81.646c0,5.95-1.668,11.549-4.991,16.8l-14.178,24.941
			c-0.876,1.404-2.099,2.102-3.671,2.102h-14.703c-1.578,0-2.803-0.697-3.676-2.102L386.3,648.561
			c-3.326-5.251-4.991-10.85-4.991-16.8v-81.646c0-2.805,1.401-4.206,4.204-4.206h8.402c2.796,0,4.197,1.401,4.197,4.206v81.646
			c0,1.573,0.264,2.978,0.791,4.201l12.603,22.577l12.862-22.577c0.173-0.7,0.303-1.357,0.391-1.97
			c0.089-0.613,0.135-1.355,0.135-2.231v-81.646c0-1.229,0.434-2.233,1.312-3.022c0.873-0.792,1.835-1.184,2.889-1.184h8.396
			C440.291,545.909,441.696,547.311,441.696,550.115z"/>
		<path fill="#3099B7" d="M480.55,562.451v39.644h22.839c2.8,0,4.201,1.402,4.201,4.198v8.402c0,2.799-1.401,4.199-4.201,4.199
			H480.55v39.904h22.839c2.8,0,4.201,1.404,4.201,4.204v8.399c0,2.802-1.401,4.201-4.201,4.201h-31.24
			c-2.454,0-4.462-0.831-6.04-2.496c-1.573-1.66-2.365-3.628-2.365-5.903V554.045c0-2.443,0.792-4.463,2.365-6.031
			c1.578-1.578,3.586-2.365,6.04-2.365h31.24c2.8,0,4.201,1.404,4.201,4.199v8.404c0,2.799-1.401,4.199-4.201,4.199H480.55z"/>
		<path fill="#3099B7" d="M559.835,545.648c4.199,0,8.092,0.787,11.68,2.365c3.59,1.568,6.781,3.76,9.583,6.561
			c2.798,2.802,4.989,5.998,6.565,9.584c1.575,3.59,2.364,7.481,2.364,11.683v95.562c0,1.047-0.394,2.018-1.183,2.891
			c-0.787,0.877-1.797,1.311-3.02,1.311h-8.401c-1.225,0-2.232-0.434-3.021-1.311c-0.784-0.873-1.179-1.844-1.179-2.891v-95.562
			c0-3.678-1.312-6.827-3.939-9.452c-2.624-2.625-5.775-3.938-9.449-3.938c-3.85,0-7.091,1.312-9.715,3.938
			c-2.625,2.625-3.939,5.774-3.939,9.452v95.562c0,1.047-0.39,2.018-1.183,2.891c-0.785,0.877-1.794,1.311-3.017,1.311h-8.402
			c-1.225,0-2.23-0.434-3.017-1.311c-0.79-0.873-1.185-1.844-1.185-2.891v-95.562c0-4.201,0.789-8.093,2.365-11.683
			c1.576-3.586,3.762-6.782,6.564-9.584c2.795-2.801,6.037-4.992,9.715-6.561C551.697,546.436,555.633,545.648,559.835,545.648z"/>
		<path fill="#3099B7" d="M650.145,549.848v8.404c0,2.799-1.401,4.199-4.198,4.199h-11.814v108.951c0,1.047-0.395,2.018-1.18,2.891
			c-0.791,0.877-1.801,1.311-3.02,1.311h-8.402c-1.229,0-2.231-0.434-3.021-1.311c-0.788-0.873-1.183-1.844-1.183-2.891V562.451
			h-11.812c-2.803,0-4.197-1.4-4.197-4.199v-8.404c0-2.795,1.395-4.199,4.197-4.199h40.432
			C648.743,545.648,650.145,547.053,650.145,549.848z"/>
	</g>
	<g>
		<path fill="#46474B" d="M842.522,645.183c0,8.926-3.062,16.276-9.188,22.056c6.125,5.777,9.188,13.04,9.188,21.787v39.123
			c0,1.045-0.393,2.013-1.18,2.887c-0.79,0.875-1.798,1.312-3.018,1.312h-8.402c-1.229,0-2.231-0.438-3.021-1.312
			c-0.788-0.874-1.183-1.842-1.183-2.887v-39.123c0-3.672-1.312-6.826-3.934-9.449c-2.626-2.623-5.776-3.936-9.453-3.936H798.94
			v52.508c0,1.045-0.434,2.013-1.309,2.887c-0.877,0.875-1.838,1.312-2.89,1.312h-8.402c-1.222,0-2.228-0.438-3.019-1.312
			c-0.785-0.874-1.18-1.842-1.18-2.887V610.792c0-2.446,0.789-4.464,2.361-6.038c1.574-1.572,3.586-2.359,6.041-2.359h21.789
			c4.201,0,8.14,0.787,11.813,2.359c3.679,1.574,6.867,3.766,9.581,6.564c2.713,2.799,4.859,5.998,6.434,9.578
			c1.574,3.594,2.361,7.486,2.361,11.686V645.183z M825.72,632.582c0-3.676-1.312-6.827-3.934-9.449
			c-2.626-2.623-5.776-3.936-9.453-3.936H798.94v39.644h13.393c3.677,0,6.827-1.312,9.453-3.94c2.621-2.625,3.934-5.863,3.934-9.718
			V632.582z"/>
		<path fill="#46474B" d="M894.769,602.655c4.199,0,8.092,0.786,11.683,2.364c3.584,1.574,6.778,3.766,9.581,6.559
			c2.801,2.807,4.99,5.998,6.564,9.586c1.574,3.589,2.363,7.479,2.363,11.681v95.304c0,2.799-1.402,4.199-4.198,4.199h-8.405
			c-2.801,0-4.198-1.4-4.198-4.199v-52.245h-27.039v52.245c0,2.799-1.405,4.199-4.202,4.199h-8.402c-2.803,0-4.201-1.4-4.201-4.199
			v-95.304c0-4.201,0.785-8.092,2.363-11.681c1.572-3.588,3.764-6.779,6.564-9.586c2.797-2.793,6.037-4.984,9.713-6.559
			C886.632,603.441,890.567,602.655,894.769,602.655z M908.158,632.845c0-3.678-1.312-6.827-3.938-9.449
			c-2.627-2.626-5.776-3.938-9.451-3.938c-3.852,0-7.092,1.312-9.715,3.938c-2.626,2.622-3.935,5.771-3.935,9.449v26.257h27.039
			V632.845z"/>
		<path fill="#46474B" d="M990.331,641.513v-8.931c0-3.676-1.312-6.827-3.939-9.449c-2.623-2.623-5.773-3.936-9.451-3.936
			c-3.676,0-6.827,1.312-9.45,3.936c-2.626,2.622-3.94,5.773-3.94,9.449v69.572c0,3.676,1.314,6.827,3.94,9.45
			c2.623,2.628,5.774,3.94,9.45,3.94c3.678,0,6.828-1.312,9.451-3.94c2.627-2.623,3.939-5.774,3.939-9.45v-9.709
			c0-2.802,1.428-4.207,4.284-4.207h8.579c2.799,0,4.198,1.405,4.198,4.207v9.709c0,4.199-0.79,8.098-2.369,11.678
			c-1.577,3.592-3.798,6.791-6.651,9.584c-2.861,2.805-6.097,4.993-9.713,6.566c-3.614,1.572-7.518,2.365-11.719,2.365
			c-4.199,0-8.137-0.793-11.812-2.365c-3.676-1.573-6.873-3.762-9.584-6.566c-2.717-2.793-4.859-5.992-6.434-9.584
			c-1.572-3.58-2.361-7.479-2.361-11.678v-69.572c0-4.199,0.789-8.092,2.361-11.686c1.574-3.58,3.717-6.779,6.434-9.578
			c2.711-2.799,5.908-4.99,9.584-6.564c3.676-1.572,7.613-2.359,11.812-2.359c4.201,0,8.104,0.787,11.719,2.359
			c3.616,1.574,6.852,3.766,9.713,6.564c2.854,2.799,5.074,5.998,6.651,9.578c1.579,3.594,2.369,7.486,2.369,11.686v8.931
			c0,2.796-1.399,4.198-4.198,4.198h-8.579C991.759,645.711,990.331,644.309,990.331,641.513z"/>
		<path fill="#46474B" d="M1043.097,619.197v39.644h22.842c2.797,0,4.202,1.397,4.202,4.198v8.397c0,2.805-1.405,4.204-4.202,4.204
			h-22.842v39.904h22.842c2.797,0,4.202,1.404,4.202,4.199v8.404c0,2.799-1.405,4.199-4.202,4.199h-31.242
			c-2.455,0-4.465-0.829-6.036-2.492c-1.577-1.668-2.364-3.635-2.364-5.908V610.792c0-2.446,0.787-4.464,2.364-6.038
			c1.571-1.572,3.581-2.359,6.036-2.359h31.242c2.797,0,4.202,1.4,4.202,4.199v8.399c0,2.802-1.405,4.204-4.202,4.204H1043.097z"/>
		<path fill="#46474B" d="M1151.001,645.183c0,8.926-3.064,16.276-9.189,22.056c6.125,5.777,9.189,13.04,9.189,21.787v39.123
			c0,1.045-0.395,2.013-1.183,2.887c-0.786,0.875-1.798,1.312-3.019,1.312h-8.401c-1.226,0-2.233-0.438-3.017-1.312
			c-0.79-0.874-1.182-1.842-1.182-2.887v-39.123c0-3.672-1.312-6.826-3.938-9.449s-5.778-3.936-9.453-3.936h-13.39v52.508
			c0,1.045-0.438,2.013-1.312,2.887c-0.875,0.875-1.838,1.312-2.889,1.312h-8.4c-1.226,0-2.23-0.438-3.02-1.312
			c-0.787-0.874-1.182-1.842-1.182-2.887V610.792c0-2.446,0.787-4.464,2.365-6.038c1.577-1.572,3.583-2.359,6.037-2.359h21.79
			c4.201,0,8.138,0.787,11.815,2.359c3.672,1.574,6.865,3.766,9.58,6.564c2.713,2.799,4.858,5.998,6.434,9.578
			c1.572,3.594,2.363,7.486,2.363,11.686V645.183z M1134.2,632.582c0-3.676-1.312-6.827-3.938-9.449
			c-2.626-2.623-5.778-3.936-9.453-3.936h-13.39v39.644h13.39c3.675,0,6.827-1.312,9.453-3.94c2.626-2.625,3.938-5.863,3.938-9.718
			V632.582z"/>
	</g>
	<path fill="#898888" d="M725.753,674.441c0,0.137-0.111,0.25-0.25,0.25h-32.5c-0.139,0-0.252-0.113-0.252-0.25v-70.884
		c0-0.137,0.113-0.253,0.252-0.253h32.5c0.139,0,0.25,0.116,0.25,0.253V674.441z M694.378,672.814c0,0.141,0.111,0.254,0.25,0.254
		h29.254c0.141,0,0.252-0.113,0.252-0.254v-67.634c0-0.14-0.111-0.253-0.252-0.253h-29.254c-0.139,0-0.25,0.113-0.25,0.253V672.814z
		"/>
	<g>
		<g>
			<path fill="#898888" d="M713.187,643.765c-0.098,0.097-0.258,0.097-0.355,0l-8.352-8.345c-0.098-0.098-0.098-0.258,0-0.355
				l0.793-0.791c0.098-0.1,0.258-0.1,0.355,0l8.35,8.344c0.1,0.098,0.1,0.258,0,0.355L713.187,643.765z"/>
		</g>
		<g>
			<path fill="#898888" d="M705.628,643.765c-0.098,0.097-0.258,0.097-0.355,0l-0.793-0.792c-0.098-0.098-0.098-0.258,0-0.355
				l8.352-8.344c0.098-0.1,0.258-0.1,0.355,0l0.791,0.791c0.1,0.098,0.1,0.258,0,0.355L705.628,643.765z"/>
		</g>
	</g>
	<g>
		<path fill="#898888" d="M710.065,604.221c0,0.139-0.113,0.252-0.252,0.252h-1.121c-0.139,0-0.252-0.113-0.252-0.252v-41.07
			c0-0.14,0.113-0.252,0.252-0.252h1.121c0.139,0,0.252,0.112,0.252,0.252V604.221z"/>
	</g>
</g>
<g id="circles_for_icons">
</g>
</svg>
